<svg viewBox="0 0 279 361.7" xml:space="preserve" xmlns="http://www.w3.org/2000/svg">
	<path
		d="m127 89.6c0 2.3-1.9 4.2-4.2 4.2s-4.2-1.9-4.2-4.2 1.9-4.2 4.2-4.2c2.4 0.1 4.2 1.9 4.2 4.2zm-12.4 12.5c2.3 0 4.2-1.9 4.2-4.2s-1.9-4.1-4.2-4.1-4.2 1.9-4.2 4.1c0 2.3 1.9 4.2 4.2 4.2zm20.7 37.4c0-2.3 1.9-4.2 4.2-4.2h8.3c2.3 0 4.2-1.9 4.2-4.2v-8.3c0-2.3-1.9-4.2-4.2-4.2s-4.2 1.9-4.2 4.2-1.9 4.2-4.2 4.2h-8.3c-2.3 0-4.2 1.9-4.2 4.2v8.3c0 2.3-1.9 4.2-4.2 4.2s-4.2-1.9-4.2-4.2-1.9-4.2-4.2-4.2-4.2 1.9-4.2 4.2v8.3c0 2.3 1.9 4.2 4.2 4.2s4.2 1.9 4.2 4.2v8.3c0 2.3 1.9 4.2 4.2 4.2s4.2-1.9 4.2-4.2v-8.3c0-2.3 1.9-4.2 4.2-4.2s4.2-1.9 4.2-4.2v-8.3zm-4.1-37.4c2.3 0 4.2-1.9 4.2-4.2s-1.9-4.1-4.2-4.1-4.2 1.9-4.2 4.1c0 2.3 1.9 4.2 4.2 4.2zm-16.6 16.6c2.3 0 4.2-1.9 4.2-4.2s-1.9-4.2-4.2-4.2-4.2 1.9-4.2 4.2 1.9 4.2 4.2 4.2zm16.6 49.9c-2.3 0-4.2 1.9-4.2 4.2s1.9 4.2 4.2 4.2 4.2-1.9 4.2-4.2c-0.1-2.3-1.9-4.2-4.2-4.2zm12.5-79v-8.3c0-2.3-1.9-4.1-4.2-4.1s-4.2 1.9-4.2 4.1v8.3c0 2.3 1.9 4.2 4.2 4.2s4.2-1.9 4.2-4.2zm-37.5 45.7c2.3 0 4.2-1.9 4.2-4.2v-8.3c0-2.3-1.9-4.2-4.2-4.2s-4.2 1.9-4.2 4.2v8.3c0.1 2.4 2 4.2 4.2 4.2zm-52.2-58.1h21.4c1 0 1.8-0.8 1.8-1.8v-21.4c0-1-0.8-1.8-1.8-1.8h-21.4c-1 0-1.8 0.8-1.8 1.8v21.4c0 1 0.8 1.8 1.8 1.8zm52.2 16.6c2.3 0 4.2-1.9 4.2-4.2s-1.9-4.2-4.2-4.2-4.2 1.9-4.2 4.2c0.1 2.3 2 4.2 4.2 4.2zm0 16.6c2.3 0 4.2-1.9 4.2-4.2s-1.9-4.2-4.2-4.2-4.2 1.9-4.2 4.2c0.1 2.3 2 4.2 4.2 4.2zm41.6 66.5h-8.3c-2.3 0-4.2 1.9-4.2 4.2s-1.9 4.1-4.2 4.1-4.2 1.9-4.2 4.2 1.9 4.2 4.2 4.2 4.2 1.9 4.2 4.2 1.9 4.1 4.2 4.1 4.2-1.9 4.2-4.1v-8.3c0-2.3 1.9-4.2 4.2-4.2s4.2-1.9 4.2-4.1c-0.1-2.4-2-4.3-4.3-4.3zm-41.6-99.7c2.3 0 4.2 1.9 4.2 4.1 0 2.3 1.9 4.2 4.2 4.2s4.2-1.9 4.2-4.2 1.9-4.1 4.2-4.1h8.3c2.3 0 4.2-1.9 4.2-4.2v-8.3c0-2.3 1.9-4.2 4.2-4.2s4.2 1.9 4.2 4.2 1.9 4.2 4.2 4.2 4.2-1.9 4.2-4.2v-16.7c0-2.3-1.9-4.2-4.2-4.2s-4.2 1.9-4.2 4.2-1.9 4.2-4.2 4.2h-8.3c-2.3 0-4.2 1.9-4.2 4.1v8.3c0 2.3-1.9 4.2-4.2 4.2s-4.2-1.9-4.2-4.2-1.9-4.2-4.2-4.2-4.2-1.9-4.2-4.2-1.9-4.1-4.2-4.1-4.2 1.9-4.2 4.1v16.8c0.1 2.3 2 4.2 4.2 4.2zm54.1-12.5c0 2.3 1.9 4.2 4.2 4.2s4.2 1.9 4.2 4.2v16.6c0 2.3-1.9 4.2-4.2 4.2s-4.2-1.9-4.2-4.2v-16.7c0-2.3-1.9-4.2-4.2-4.2s-4.2 1.9-4.2 4.2v33.3c0 2.3 1.9 4.2 4.2 4.2s4.2-1.9 4.2-4.2 1.9-4.2 4.2-4.2 4.2 1.9 4.2 4.2-1.9 4.2-4.2 4.2-4.2 1.9-4.2 4.2 1.9 4.2 4.2 4.2h16.6c2.3 0 4.1-1.9 4.1-4.2v-8.3c0-2.3-1.9-4.2-4.1-4.2-2.3 0-4.2-1.9-4.2-4.2v-41.6c0-2.3-1.9-4.1-4.2-4.1s-4.2-1.9-4.2-4.2-1.9-4.2-4.2-4.2-4.2 1.9-4.2 4.2v16.6zm-4.2-20.8c2.3 0 4.2-1.9 4.2-4.2s-1.9-4.2-4.2-4.2-4.2 1.9-4.2 4.2c0.1 2.3 1.9 4.2 4.2 4.2zm87 245.9h-207.2c-19.8 0-35.9 16.1-35.9 36 0 19.8 16.1 35.9 35.9 35.9h207.1c19.8 0 35.9-16.1 35.9-35.9 0.1-19.9-16-36-35.8-36zm-70.3-245.9c2.3 0 4.2-1.9 4.2-4.2s-1.9-4.2-4.2-4.2-4.2 1.9-4.2 4.2 1.9 4.2 4.2 4.2zm-25 157.9c-2.3 0-4.2 1.9-4.2 4.2s1.9 4.2 4.2 4.2 4.2-1.9 4.2-4.2-1.9-4.2-4.2-4.2zm-20.8-20.7c0-2.3-1.9-4.2-4.2-4.2s-4.2 1.9-4.2 4.2 1.9 4.1 4.2 4.1c2.4 0 4.2-1.8 4.2-4.1zm-12.4 20.7c2.3 0 4.2 1.9 4.2 4.2s1.9 4.2 4.2 4.2h8.3c2.3 0 4.2-1.9 4.2-4.2s-1.9-4.2-4.2-4.2-4.2-1.9-4.2-4.1c0-2.3-1.9-4.2-4.2-4.2h-8.3c-2.3 0-4.2 1.9-4.2 4.2s1.9 4.1 4.2 4.1zm-8.4-33.2c2.3 0 4.2-1.9 4.2-4.2s-1.9-4.2-4.2-4.2-4.2 1.9-4.2 4.2c0.1 2.3 2 4.2 4.2 4.2zm0 16.6c2.3 0 4.2-1.9 4.2-4.1 0-2.3-1.9-4.2-4.2-4.2s-4.2 1.9-4.2 4.2c0.1 2.3 2 4.1 4.2 4.1zm33.3 33.3c2.3 0 4.2-1.9 4.2-4.2s-1.9-4.2-4.2-4.2-4.2 1.9-4.2 4.2 1.9 4.2 4.2 4.2zm-33.3-174.6h8.3c2.3 0 4.2-1.9 4.2-4.2s-1.9-4.2-4.2-4.2h-8.3c-2.3 0-4.2 1.9-4.2 4.2 0.1 2.3 2 4.2 4.2 4.2zm120.6 162.1c0-2.3-1.9-4.2-4.1-4.2-2.3 0-4.2 1.9-4.2 4.2s1.9 4.2 4.2 4.2c2.2 0 4.1-1.9 4.1-4.2zm-20.8 20.8c-2.3 0-4.2 1.9-4.2 4.2s1.9 4.2 4.2 4.2 4.2-1.9 4.2-4.2-1.9-4.2-4.2-4.2zm-91.4 0c-2.3 0-4.2-1.9-4.2-4.1v-8.3c0-2.3-1.9-4.2-4.2-4.2s-4.2 1.9-4.2 4.2v24.9c0 2.3 1.9 4.2 4.2 4.2s4.2-1.9 4.2-4.2 1.9-4.2 4.2-4.2 4.2-1.9 4.2-4.2-2-4.1-4.2-4.1zm74.8-41.6c-2.3 0-4.2 1.9-4.2 4.2s1.9 4.2 4.2 4.2 4.2-1.9 4.2-4.2c-0.1-2.3-1.9-4.2-4.2-4.2zm-49.9 49.9c-2.3 0-4.2 1.9-4.2 4.2s1.9 4.2 4.2 4.2 4.2-1.9 4.2-4.2-1.9-4.2-4.2-4.2zm-8.3-16.6h-8.3c-2.3 0-4.2 1.9-4.2 4.2s1.9 4.1 4.2 4.1h8.3c2.3 0 4.2-1.9 4.2-4.1-0.1-2.4-1.9-4.2-4.2-4.2zm112.2-29.1v24.9c0 2.3-1.9 4.2-4.2 4.2s-4.2 1.9-4.2 4.2 1.9 4.1 4.2 4.1 4.2 1.9 4.2 4.2v8.3c0 2.3-1.9 4.2-4.2 4.2h-16.6c-2.3 0-4.2-1.9-4.2-4.2v-8.3c0-2.3-1.9-4.2-4.2-4.2s-4.2-1.9-4.2-4.1c0-2.3 1.9-4.2 4.2-4.2h8.3c2.3 0 4.1-1.9 4.1-4.2s1.9-4.2 4.2-4.2 4.2-1.9 4.2-4.2-1.9-4.2-4.2-4.2-4.2-1.9-4.2-4.1c0-2.3-1.9-4.2-4.1-4.2-2.3 0-4.2-1.9-4.2-4.2s-1.9-4.2-4.2-4.2-4.2 1.9-4.2 4.2v24.9c0 2.3-1.9 4.2-4.2 4.2s-4.2-1.9-4.2-4.2-1.9-4.2-4.1-4.2c-2.3 0-4.2 1.9-4.2 4.2v8.3c0 2.3-1.9 4.1-4.2 4.1s-4.2 1.9-4.2 4.2-1.9 4.2-4.1 4.2c-2.3 0-4.2-1.9-4.2-4.2v-8.3c0-2.3 1.9-4.2 4.2-4.2s4.1-1.9 4.1-4.2-1.9-4.2-4.1-4.2c-2.3 0-4.2 1.9-4.2 4.2s-1.9 4.2-4.2 4.2-4.2 1.9-4.2 4.2v16.6c0 2.3-1.9 4.2-4.2 4.2s-4.2-1.9-4.2-4.2-1.9-4.2-4.2-4.2h-8.3c-2.3 0-4.2-1.9-4.2-4.2v-8.3c0-2.3 1.9-4.2 4.2-4.2s4.2-1.9 4.2-4.2 1.9-4.2 4.2-4.2 4.2-1.9 4.2-4.2-1.9-4.2-4.2-4.2-4.2-1.9-4.2-4.1v-8.3c0-2.3 1.9-4.2 4.2-4.2s4.2 1.9 4.2 4.2 1.9 4.2 4.2 4.2 4.2-1.9 4.2-4.2-1.9-4.2-4.2-4.2-4.2-1.9-4.2-4.1c0-2.3 1.9-4.2 4.2-4.2s4.2-1.9 4.2-4.2 1.9-4.2 4.2-4.2 4.2-1.9 4.2-4.2-1.9-4.2-4.2-4.2h-8.3c-2.3 0-4.2 1.9-4.2 4.2v8.3c0 2.3-1.9 4.2-4.2 4.2s-4.2-1.9-4.2-4.2-1.9-4.2-4.2-4.2h-8.3c-2.3 0-4.2-1.9-4.2-4.2v-8.3c0-2.3 1.9-4.2 4.2-4.2h16.6c2.3 0 4.2-1.9 4.2-4.2s-1.9-4.2-4.2-4.2-4.2-1.9-4.2-4.2 1.9-4.2 4.2-4.2 4.2-1.9 4.2-4.2 1.9-4.2 4.2-4.2 4.2 1.9 4.2 4.2v8.3c0 2.3 1.9 4.2 4.2 4.2s4.2 1.9 4.2 4.2 1.9 4.2 4.2 4.2 4.1 1.9 4.1 4.2v8.3c0 2.3 1.9 4.2 4.2 4.2h16.9c2.3 0 4.2 1.9 4.2 4.2s1.9 4.2 4.2 4.2h8.3c2.3 0 4.1 1.9 4.1 4.2s1.9 4.1 4.2 4.1h8.3c2.3 0.7 4.1 2.6 4.1 4.9zm-41.6-8.3c0-2.3-1.9-4.2-4.1-4.2h-16.6c-2.3 0-4.2 1.9-4.2 4.2v16.6c0 2.3 1.9 4.1 4.2 4.1h16.6c2.3 0 4.1-1.9 4.1-4.1v-16.6zm41.6-74.9v41.6c0 2.3-1.9 4.2-4.2 4.2s-4.2 1.9-4.2 4.2 1.9 4.2 4.2 4.2 4.2 1.9 4.2 4.2-1.9 4.2-4.2 4.2-4.2 1.9-4.2 4.2-1.9 4.2-4.2 4.2-4.2-1.9-4.2-4.2v-33.2c0-2.3 1.9-4.2 4.2-4.2s4.2-1.9 4.2-4.2-1.9-4.2-4.2-4.2-4.2 1.9-4.2 4.2-1.9 4.2-4.1 4.2c-2.3 0-4.2 1.9-4.2 4.2v16.6c0 2.3-1.9 4.2-4.2 4.2h-16.6c-2.3 0-4.2-1.9-4.2-4.2v-8.3c0-2.3-1.9-4.2-4.2-4.2s-4.2-1.9-4.2-4.2-1.9-4.2-4.1-4.2c-2.3 0-4.2-1.9-4.2-4.2s1.9-4.2 4.2-4.2h16.6c2.3 0 4.1 1.9 4.1 4.2s1.9 4.2 4.2 4.2 4.2-1.9 4.2-4.2v-8.3c0-2.3 1.9-4.2 4.2-4.2h16.9c2.3 0 4.2-1.9 4.2-4.2v-8.3c0-2.3 1.9-4.2 4.2-4.2 2.2 0 4 1.9 4 4.1zm-33.2 41.6c0-2.3-1.9-4.2-4.2-4.2s-4.2 1.9-4.2 4.2 1.9 4.2 4.2 4.2 4.2-1.9 4.2-4.2zm68.9-134.1v251.7c0 7.6-6.2 13.7-13.7 13.7h-251.7c-7.6 0-13.7-6.2-13.7-13.7v-251.7c0-7.6 6.1-13.7 13.7-13.7h251.6c7.6 0 13.7 6.1 13.8 13.7zm-10.6 4.2c0-4.1-3.3-7.4-7.4-7.4h-243.2c-4.1 0-7.4 3.3-7.4 7.4v243.2c0 4.1 3.3 7.4 7.4 7.4h243.2c4.1 0 7.4-3.3 7.4-7.4v-243.2zm-25.1 19.4v54.7c0 1-0.8 1.8-1.8 1.8h-54.6c-1 0-1.8-0.8-1.8-1.8v-54.7c0-1 0.8-1.8 1.8-1.8h54.7c0.9 0.1 1.7 0.9 1.7 1.8zm-8.3 7.6c0-0.6-0.5-1-1-1h-39.5c-0.5 0-1 0.5-1 1v39.5c0 0.5 0.5 1 1 1h39.5c0.6 0 1-0.5 1-1v-39.5zm-29.1 73.8c2.3 0 4.2-1.9 4.2-4.2s1.9-4.2 4.2-4.2h8.3c2.3 0 4.1-1.9 4.1-4.2s-1.9-4.2-4.1-4.2h-16.7c-2.3 0-4.2 1.9-4.2 4.2s-1.9 4.2-4.1 4.2c-2.3 0-4.2 1.9-4.2 4.2s1.9 4.2 4.2 4.2h8.3zm19-66.5h-21.4c-1 0-1.8 0.8-1.8 1.8v21.4c0 1 0.8 1.8 1.8 1.8h21.4c1 0 1.8-0.8 1.8-1.8v-21.4c0-1-0.8-1.8-1.8-1.8zm-131.2 134.8v54.7c0 1-0.8 1.8-1.8 1.8h-54.7c-1 0-1.8-0.8-1.8-1.8v-54.7c0-1 0.8-1.8 1.8-1.8h54.7c1 0 1.8 0.8 1.8 1.8zm-8.3 7.5c0-0.5-0.5-1-1-1h-39.6c-0.6 0-1 0.5-1 1v39.5c0 0.6 0.5 1 1 1h39.5c0.5 0 1-0.5 1-1v-39.5zm-12.5-25.9c2.3 0 4.2-1.9 4.2-4.2s-1.9-4.2-4.2-4.2-4.2 1.9-4.2 4.2 1.9 4.2 4.2 4.2zm-37.4-4.2c0 2.3 1.9 4.2 4.2 4.2s4.2-1.9 4.2-4.2-1.9-4.2-4.2-4.2c-2.4 0.1-4.2 2-4.2 4.2zm62.3-29.1h-16.6c-2.3 0-4.1-1.9-4.1-4.2v-8.3c0-2.3 1.9-4.2 4.1-4.2 2.3 0 4.2-1.9 4.2-4.2s-1.9-4.2-4.2-4.2h-8.3c-2.3 0-4.2 1.9-4.2 4.2s-1.9 4.2-4.2 4.2-4.2-1.9-4.2-4.2 1.9-4.2 4.2-4.2 4.2-1.9 4.2-4.2-1.9-4.2-4.2-4.2h-24.9c-2.3 0-4.2 1.9-4.2 4.2s1.9 4.2 4.2 4.2h8.3c2.3 0 4.2 1.9 4.2 4.2v8.3c0 2.3 1.9 4.2 4.1 4.2h8.3c2.3 0 4.2 1.9 4.2 4.2s-1.9 4.2-4.2 4.2-4.2 1.9-4.2 4.2 1.9 4.2 4.2 4.2h8.4c2.3 0 4.2 1.9 4.2 4.2s1.9 4.2 4.1 4.2c2.3 0 4.2-1.9 4.2-4.2s1.9-4.2 4.2-4.2h8.3c2.3 0 4.2-1.9 4.2-4.2s-2-4.2-4.3-4.2zm-49.9-8.3c-2.3 0-4.2 1.9-4.2 4.2s-1.9 4.2-4.2 4.2-4.2 1.9-4.2 4.2 1.9 4.2 4.2 4.2h8.4c2.3 0 4.2-1.9 4.2-4.2v-8.3c0-2.4-1.9-4.3-4.2-4.3zm41.6-8.3c-2.3 0-4.2 1.9-4.2 4.2s1.9 4.2 4.2 4.2 4.2-1.9 4.2-4.2-1.9-4.2-4.2-4.2zm0-16.6c-2.3 0-4.2 1.9-4.2 4.2s1.9 4.2 4.2 4.2 4.2-1.9 4.2-4.2-1.9-4.2-4.2-4.2zm-24.9 49.9h-16.7c-2.3 0-4.2 1.9-4.2 4.2s1.9 4.2 4.2 4.2 4.2 1.9 4.2 4.2v8.3c0 2.3 1.9 4.2 4.1 4.2h8.3c2.3 0 4.2-1.9 4.2-4.2s-1.9-4.2-4.2-4.2-4.2-1.9-4.2-4.2 1.9-4.2 4.2-4.2 4.2-1.9 4.2-4.2-1.8-4.1-4.1-4.1zm24.9 16.6c-2.3 0-4.2 1.9-4.2 4.2s1.9 4.2 4.2 4.2 4.2-1.9 4.2-4.2-1.9-4.2-4.2-4.2zm0-16.6c-2.3 0-4.2 1.9-4.2 4.2s1.9 4.2 4.2 4.2 4.2-1.9 4.2-4.2c0-2.4-1.9-4.2-4.2-4.2zm-49.9-33.3c-2.3 0-4.2 1.9-4.2 4.2s1.9 4.2 4.2 4.2 4.2-1.9 4.2-4.2-1.9-4.2-4.2-4.2zm35.7 83.1h-21.4c-1 0-1.8 0.8-1.8 1.8v21.4c0 1 0.8 1.8 1.8 1.8h21.4c1 0 1.8-0.8 1.8-1.8v-21.4c0-1-0.8-1.8-1.8-1.8zm-39.8-109.8v-54.7c0-1 0.8-1.8 1.8-1.8h54.6c1 0 1.8 0.8 1.8 1.8v54.7c0 1-0.8 1.8-1.8 1.8h-54.7c-0.9 0-1.7-0.8-1.7-1.8zm8.3-7.5c0 0.5 0.5 1 1 1h39.5c0.5 0 1-0.5 1-1v-39.6c0-0.6-0.5-1-1-1h-39.5c-0.6 0-1 0.5-1 1v39.6z"
		fill="#E1B783" />
	<path
		d="m35.9 297.2c-15.8 0-28.5 12.7-28.5 28.5s12.7 28.5 28.5 28.5 28.5-12.7 28.5-28.5c0-15.7-12.7-28.5-28.5-28.5zm0 55c-14.6 0-26.5-11.9-26.5-26.5s11.9-26.5 26.5-26.5 26.5 11.9 26.5 26.5-11.9 26.5-26.5 26.5zm15.3-40.7h-30.7c-2.2 0-4.1 1.8-4.1 4.1v20c0 2.2 1.8 4.1 4.1 4.1h30.7c2.2 0 4.1-1.8 4.1-4.1v-20c0.1-2.2-1.9-4.1-4.1-4.1zm1 24.1c0 0.6-0.5 1.1-1.1 1.1h-30.7c-0.6 0-1.1-0.5-1.1-1.1v-19.5c0-0.6 0.5-1.1 1.1-1.1h30.7c0.6 0 1.1 0.5 1.1 1.1v19.5zm-17.1-4.1v0.9c0 0.6-0.5 1-1 1h-10.9c-0.6 0-1-0.5-1-1v-0.9c0-1.8 1.5-3.3 3.3-3.3h0.8c0.5 0 0.8-0.4 0.8-0.8 0-0.2-0.1-0.3-0.2-0.4-0.5-0.5-1.7-1.9-1.7-4.8 0-1.9 0.4-4.3 3.4-4.3 3.1 0 3.4 2.4 3.4 4.3 0 2.8-1.2 4.3-1.7 4.8-0.1 0.1-0.2 0.3-0.2 0.4 0 0.4 0.3 0.8 0.8 0.8h0.8c1.9 0.1 3.4 1.5 3.4 3.3zm14.5-12c0 0.9-0.8 1.7-1.7 1.6h-7.9c-0.9 0-1.6-0.7-1.6-1.6s0.7-1.6 1.6-1.6h8c0.9 0 1.6 0.7 1.6 1.6zm0 12.4c0 0.9-0.8 1.6-1.7 1.6h-7.9c-0.9 0-1.6-0.7-1.6-1.6s0.7-1.6 1.6-1.6h8c0.9 0 1.6 0.7 1.6 1.6zm0-6.3c0 0.9-0.8 1.6-1.7 1.6h-7.9c-0.9 0-1.6-0.7-1.6-1.6s0.7-1.6 1.6-1.6h8c0.9 0 1.6 0.7 1.6 1.6zm48.4-0.1c-0.7 1-1.1 2.4-1.1 4.3 0 1.8 0.4 3.2 1.1 4.2s1.8 1.5 3.2 1.5c1.3 0 2.6-0.3 3.9-0.9v2.2c-1 0.5-2.3 0.8-3.9 0.8-2.2 0-3.9-0.7-5.1-2s-1.8-3.2-1.8-5.7 0.6-4.5 1.8-5.8c1.2-1.4 3-2.1 5.2-2.1 0.7 0 1.5 0.1 2.2 0.2s1.3 0.3 1.8 0.6l-0.8 2.1c-1.3-0.5-2.4-0.7-3.3-0.7-1.4-0.2-2.5 0.3-3.2 1.3zm57.3 9.9c0.4-0.1 0.8-0.1 1-0.2v1.9c-0.2 0.1-0.6 0.2-1.1 0.3s-1 0.1-1.5 0.1c-3 0-4.4-1.6-4.4-4.7v-8.8h-2.1v-1.2l2.2-1 1-3.2h1.5v3.5h4.4v1.9h-4.4v8.7c0 0.9 0.2 1.5 0.6 2s1 0.7 1.7 0.7c0.3 0.1 0.7 0.1 1.1 0zm10.2-13.5c-2.2 0-3.9 0.7-5.2 2.1-1.2 1.4-1.8 3.3-1.8 5.7 0 1.6 0.3 3 0.9 4.2s1.4 2.1 2.4 2.7c1.1 0.6 2.3 1 3.6 1 2.2 0 3.9-0.7 5.2-2.1 1.2-1.4 1.9-3.3 1.9-5.8 0-2.4-0.6-4.3-1.9-5.7s-3-2.1-5.1-2.1zm3.3 12.1c-0.8 1-1.8 1.5-3.3 1.5s-2.6-0.5-3.3-1.5-1.1-2.4-1.1-4.3c0-3.8 1.5-5.7 4.4-5.7 1.5 0 2.6 0.5 3.3 1.4 0.8 1 1.1 2.4 1.1 4.3s-0.4 3.3-1.1 4.3zm72.5-5.3c0-2.1-0.6-3.7-1.7-5s-2.6-1.8-4.5-1.8c-2 0-3.7 0.7-4.9 2.2-1.2 1.4-1.8 3.4-1.8 5.8s0.6 4.3 1.9 5.7 3.1 2.1 5.3 2.1c1 0 1.9-0.1 2.6-0.2s1.5-0.4 2.4-0.8v-2.2c-1 0.4-1.8 0.7-2.5 0.8s-1.5 0.2-2.3 0.2c-1.5 0-2.7-0.4-3.5-1.3s-1.3-2.2-1.3-3.9h10.3v-1.6zm-10.3-0.5c0.1-1.4 0.5-2.4 1.2-3.2s1.6-1.1 2.8-1.1 2 0.4 2.7 1.1c0.6 0.7 1 1.8 1 3.2h-7.7zm-26.2-6.3c-0.9 0-1.8 0.1-2.7 0.3s-1.7 0.5-2.5 0.9l0.8 1.9c0.6-0.3 1.3-0.6 2-0.8s1.5-0.4 2.3-0.4c1.1 0 1.9 0.3 2.4 0.8s0.7 1.4 0.7 2.5v0.9l-2.6 0.1c-4.8 0.1-7.2 1.8-7.2 4.8 0 1.4 0.4 2.5 1.3 3.3s2 1.2 3.5 1.2c1.1 0 2.1-0.2 2.8-0.5s1.5-1 2.2-1.9h0.1l0.5 2.1h1.8v-10.1c0-1.8-0.4-3-1.3-3.8-0.9-0.9-2.2-1.3-4.1-1.3zm3 9.3c0 1.4-0.4 2.4-1.2 3.2-0.8 0.7-1.9 1.1-3.3 1.1-0.9 0-1.5-0.2-2-0.6s-0.7-1-0.7-1.8c0-1 0.4-1.8 1.2-2.3s2.1-0.8 3.8-0.8l2.2-0.1v1.3zm-12.9-1.7c0.3 0.7 0.5 1.5 0.5 2.4 0 1.8-0.6 3.1-1.9 4.1s-3 1.5-5.3 1.5c-2.4 0-4.2-0.3-5.5-0.9v-2.4c0.9 0.4 1.8 0.7 2.8 0.9s2 0.3 2.8 0.3c1.5 0 2.6-0.3 3.4-0.9s1.1-1.4 1.1-2.4c0-0.7-0.1-1.2-0.4-1.6s-0.7-0.8-1.4-1.2c-0.6-0.4-1.6-0.8-2.9-1.3-1.9-0.7-3.2-1.5-4-2.4s-1.2-2.1-1.2-3.6c0-1.6 0.6-2.8 1.8-3.7s2.7-1.4 4.7-1.4 3.9 0.4 5.5 1.1l-0.8 2.2c-1.7-0.7-3.3-1.1-4.8-1.1-1.2 0-2.1 0.3-2.8 0.8s-1 1.2-1 2.2c0 0.7 0.1 1.2 0.4 1.6s0.7 0.8 1.3 1.2 1.5 0.8 2.7 1.2c1.5 0.5 2.6 1.1 3.3 1.6 0.8 0.5 1.3 1.1 1.7 1.8zm-104 0c0.3 0.7 0.5 1.5 0.5 2.4 0 1.8-0.6 3.1-1.9 4.1s-3 1.5-5.3 1.5c-2.4 0-4.2-0.3-5.5-0.9v-2.4c0.9 0.4 1.8 0.7 2.8 0.9s2 0.3 2.8 0.3c1.5 0 2.6-0.3 3.4-0.9s1.1-1.4 1.1-2.4c0-0.7-0.1-1.2-0.4-1.6s-0.7-0.8-1.4-1.2c-0.6-0.4-1.6-0.8-2.9-1.3-1.9-0.7-3.2-1.5-4-2.4s-1.2-2.1-1.2-3.6c0-1.6 0.6-2.8 1.8-3.7s2.7-1.4 4.7-1.4 3.9 0.4 5.5 1.1l-0.8 2.2c-1.7-0.7-3.3-1.1-4.8-1.1-1.2 0-2.1 0.3-2.8 0.8s-1 1.2-1 2.2c0 0.7 0.1 1.2 0.4 1.6s0.7 0.8 1.3 1.2 1.5 0.8 2.7 1.2c1.5 0.5 2.6 1.1 3.3 1.6s1.4 1.1 1.7 1.8zm133.3-7.3h2.6l-5.7 15.1h-2.8l-5.7-15.1h2.7l3.2 8.9c0.6 1.8 1 3.1 1.2 4h0.1c0-0.1 0.1-0.3 0.1-0.4 0-0.2 0.1-0.3 0.1-0.5 0.1-0.2 0.4-1.2 1-3.1l3.2-8.9zm-88.4 1c0.9 0.9 1.3 2.3 1.3 4.2v9.8h-2.4v-9.6c0-1.2-0.3-2.1-0.8-2.7s-1.4-0.9-2.6-0.9c-1.5 0-2.7 0.4-3.4 1.3s-1.1 2.3-1.1 4.2v7.8h-2.5v-15.1h2l0.4 2.1h0.1c0.5-0.7 1.1-1.3 2-1.7 0.8-0.4 1.8-0.6 2.8-0.6 2-0.1 3.3 0.3 4.2 1.2zm-21.4-1.3c-0.9 0-1.8 0.1-2.7 0.3s-1.7 0.5-2.5 0.9l0.8 1.9c0.6-0.3 1.3-0.6 2-0.8s1.5-0.4 2.3-0.4c1.1 0 1.9 0.3 2.4 0.8s0.7 1.4 0.7 2.5v0.9l-2.6 0.1c-4.8 0.1-7.2 1.8-7.2 4.8 0 1.4 0.4 2.5 1.3 3.3 0.8 0.8 2 1.2 3.5 1.2 1.1 0 2.1-0.2 2.8-0.5s1.5-1 2.2-1.9h0.1l0.5 2.1h1.8v-10.1c0-1.8-0.4-3-1.3-3.8-0.9-0.9-2.3-1.3-4.1-1.3zm2.9 9.3c0 1.4-0.4 2.4-1.2 3.2-0.8 0.7-1.9 1.1-3.3 1.1-0.9 0-1.5-0.2-2-0.6s-0.7-1-0.7-1.8c0-1 0.4-1.8 1.2-2.3s2.1-0.8 3.8-0.8l2.2-0.1v1.3z" />
</svg>