
<svg xmlns="http://www.w3.org/2000/svg" version="1.1" viewBox="0 0 444 242">
 <path d="M174.6,51.8c-.5-1.7-.8-2.8-.8-3.4,0-1.4.7-2.1,2.1-2.1h8.4c1.6,0,2.7.3,3.3.9.7.5,1.2,1.7,1.7,3.3l14.4,56.7,13.4-56.7c.4-1.7.9-2.8,1.6-3.3s1.9-.9,3.4-.9h6.9c1.6,0,2.7.3,3.4.9.7.5,1.3,1.7,1.6,3.3l13.5,57.4,14.8-57.4c.5-1.7,1.1-2.8,1.7-3.3.7-.5,1.8-.9,3.3-.9h8c1.4,0,2.1.7,2.1,2.1s0,.9-.2,1.4c0,.5-.3,1.2-.6,2.1l-20.6,66.2c-.5,1.7-1.1,2.8-1.8,3.3-.7.5-1.8.9-3.3.9h-7.4c-1.6,0-2.7-.3-3.4-.9-.7-.6-1.3-1.7-1.6-3.4l-13.3-55.2-13.2,55.2c-.4,1.7-.9,2.8-1.6,3.4-.7.6-1.9.9-3.4.9h-7.4c-1.5,0-2.6-.3-3.3-.9-.7-.5-1.3-1.7-1.8-3.3l-20.1-66.2ZM286.8,119.5c2.2,1.3,5.6,2.4,9.8,3.4s8.7,1.5,13.2,1.5,8.4-.6,12.2-1.8c3.7-1.1,6.9-2.7,9.5-4.8,2.7-2.1,4.7-4.6,6.3-7.5,1.5-2.9,2.2-6.3,2.2-9.9s-1.3-8.5-3.9-12c-2.7-3.5-7.1-6.3-13.3-8.2l-12.2-3.9c-4.5-1.5-7.7-3.1-9.4-4.7-1.7-1.6-2.6-3.7-2.6-6.1,0-3.5,1.4-6,4-7.6,2.7-1.6,6.5-2.4,11.4-2.4s11.6,1.1,16.4,3.3c1.5.7,2.6,1,3.3,1,1.3,0,2-.9,2-2.7v-4c0-1.2-.3-2.1-.8-2.8-.5-.8-1.4-1.5-2.6-2.1-.9-.5-2.1-1-3.6-1.5-1.5-.5-3.2-.9-4.9-1.4-1.8-.3-3.6-.7-5.6-.9-1.9-.3-3.9-.3-5.7-.3-3.8,0-7.4.4-10.8,1.5-3.4,1-6.3,2.5-8.9,4.5-2.6,1.9-4.6,4.3-6.2,7-1.5,2.7-2.3,5.9-2.3,9.5s1.5,8.7,4.3,12.4c2.8,3.9,7.5,6.8,13.7,8.7l12.4,3.9c4.2,1.4,7.1,2.8,8.7,4.5,1.5,1.6,2.3,3.6,2.3,6,0,3.5-1.5,6.3-4.5,8.1-2.9,1.9-7.1,2.8-12.5,2.8s-6.8-.3-10.2-1c-3.3-.7-6.5-1.7-9.4-3-.9-.3-1.6-.7-2.1-.9s-1-.3-1.5-.3c-1.3,0-2,.9-2,2.7v4.4c0,.8.2,1.6.5,2.4.3.8,1.3,1.6,2.7,2.4ZM151.6,79.8v-6.3c0-6.5-1.4-11-4-13.7-2.7-2.7-7.4-3.9-14-3.9s-6.1.3-9.3,1.1-6.3,1.7-9.3,2.9c-1.4.6-2.4.9-3,1.1s-1,.3-1.4.3c-1.2,0-1.8-.9-1.8-2.7v-4.2c0-1.4.2-2.4.6-3,.4-.6,1.2-1.2,2.4-1.8,3-1.5,6.6-2.8,10.8-3.9,4.2-1.1,8.7-1.6,13.4-1.6,10.2,0,17.6,2.3,22.4,6.9,4.7,4.6,7.1,11.6,7.1,21.1v27.8h.2c0,3.2.3,5.7.9,7.6.7,1.9,1.5,3.9,2.7,6.2.4.7.6,1.4.6,2,0,.9-.5,1.7-1.6,2.6l-5.4,3.6c-.8.5-1.5.8-2.2.8s-1.7-.4-2.6-1.2c-1.2-1.3-2.2-2.7-3.1-4-.9-1.5-1.7-3.1-2.7-5.1-6.7,7.9-15.1,11.8-25.2,11.8s-12.9-2.1-17.1-6.2c-4.2-4.1-6.3-9.6-6.3-16.4s2.6-13.2,7.8-17.6c5.2-4.5,12.2-6.7,21-6.7s5.9.3,9.1.7c3.2.4,6.4,1.1,9.8,1.9ZM143.9,87.9c-2.7-.3-5.4-.5-8.1-.5-5.7,0-9.9,1.1-12.8,3.4s-4.2,5.6-4.2,9.8,1,7,3.2,9.1c2.1,2.1,5.1,3.2,9,3.2s5.7-.5,8.8-1.5c3.1-1,5.8-2.9,8.1-5.5,1.4-1.6,2.4-3.4,2.9-5.5.5-2.1.9-4.5.9-7.5v-3.6c-2.5-.6-5.1-1.1-7.9-1.5ZM322,159.6c-31.6,13.4-66,19.9-97.2,19.9-46.3,0-91.1-12.8-127.4-33.8-3.2-1.9-5.6,1.4-2.9,3.8,33.6,30.3,78,48.6,127.4,48.6s76.1-11,104.3-31.9c4.6-3.4.6-8.7-4.1-6.5ZM349.8,143.5c-3.1-3.8-29.5-7-45.7,4.3-2.5,1.8-2.1,4.2.7,3.9,9.2-1.1,29.4-3.5,33,1.1,3.6,4.5-4,23.6-7.5,32.1-1,2.6,1.2,3.6,3.5,1.6,15.1-12.7,19-39.1,15.9-43Z"/>
</svg>