<svg xmlns="http://www.w3.org/2000/svg" version="1.1" viewBox="0 0 512 512">
<path class="cls-1" d="M288,199h-42v-19h42v19ZM288,207h-42v19h42v-19ZM288,226h-42v19h42v-19ZM288,161h-42v19h42v-19ZM288,115h-42v19h42v-19ZM288,134h-42v19h42v-19ZM338,207h-42v19h42v-19ZM338,226h-42v19h42v-19ZM239,161h-42v19h42v-19ZM140,207h-42v19h42v-19ZM189,226h-41v19h41v-19ZM189,180h-41v19h41v-19ZM239,180h-42v19h42v-19ZM140,226h-42v19h42v-19ZM189,207h-41v19h41v-19ZM239,207h-42v19h42v-19ZM189,161h-41v19h41v-19ZM239,226h-42v19h42v-19ZM417,217c-4-29-35-46-35-46,0,0-29,35-8,74-6,3-16,7-31,7H68c-5,19-5,145,133,145s173-46,208-130c52,4,63-39,63-39,0,0-18-17-55-11Z"/>
</svg>