<svg xmlns="http://www.w3.org/2000/svg" version="1.1" viewBox="0 0 560 190">
<path d="M165,75.8c-4.8,0-8.5,1.5-11.2,4.6-2.7,3.1-4.1,7.6-4.1,12.9s1.4,9.5,4.4,12.5c2.9,3,7.1,4.5,12.2,4.5v.2c2.1,0,4.2.1,6-.3,1.8-.4,3.6-1,5.3-1.8v-5.8c-2,.8-3.8,1.4-5.5,1.8-1.6.4-2.5.5-5.5.5s-5.5-.8-7-2.6c-1.6-1.8-2.5-4.3-2.6-7.5h22.3v-3.9c0-4.8-1.3-8.4-3.9-11.1-2.5-2.7-5.6-4-10.4-4ZM157.1,89.7c.2-2.8,1.1-4.9,2.4-6.3,1.3-1.4,3.1-2.2,5.4-2.2h0c2.3,0,4.1.8,5.4,2.2,1.3,1.4,1.9,3.6,1.9,6.3h-15.2ZM187.3,62.8h7.1v47h-7.1v-47ZM227.4,79c-2.2-1.9-5.5-2.8-9.7-2.8s-3.9.3-6.1.8c-2.2.5-4.1,1.3-5.9,2.2l2.3,5c1.4-.6,2.9-1.3,4.5-1.8s2.9-.8,4.9-.8,3.6.4,4.6,1.5c1,1.1,1.5,2.6,1.5,4.8v1.9h-5.8c-5.3.1-9.1,1.1-11.7,2.8-2.6,1.6-3.9,4.4-3.9,7.7s.8,5.7,2.7,7.5c1.9,1.8,5.1,2.7,7.7,2.7s4.6-.6,6.3-1.2c1.7-.6,3.4-2,4.9-4.1h.3l1.4,4.6h.2c0,.1,5,.1,5,.1v-22.1c0-4-1-6.9-3.2-8.8ZM223.4,96.6c0,2.6-.8,4.7-2.3,6.1-1.6,1.4-3.6,2.2-6.1,2.2-1.8,0-3.2-.4-4.1-1.2-.9-.8-1.3-1.5-1.3-3.5s.8-3.6,2.3-4.6,4-1.5,7.3-1.8h4.2v2.8ZM261.5,96c.9,1.3,1.2,2.6,1.2,4.2h0c0,3.3-1.2,5.9-3.6,7.6-2.4,1.7-5.8,2.6-10.2,2.6s-8-.6-10.7-2.1v-6.2c3.9,1.8,7.6,2.7,10.9,2.7s6.6-1.3,6.6-4-.3-1.5-.8-2.1c-.5-.5-1.3-1.2-2.4-1.8-1.2-.6-2.7-1.3-4.6-2.1-3.9-1.5-6.4-3-7.9-4.5-1.4-1.5-2.1-3.5-2.1-5.8s1.2-5,3.5-6.7c2.3-1.7,5.4-2.3,9.4-2.3s7.6.8,11.1,2.4l-2.3,5.3c-3.6-1.5-6.6-2.2-9.1-2.2-3.7,0-5.7,1-5.7,3.2s.5,1.9,1.4,2.7c.9.8,3.1,1.7,6.4,3,2.7,1,4.8,2.1,6.1,3,1.3.9,2.2,1.9,2.8,3.1ZM282.8,104.7c1.7,0,3.5-.3,5.1-.8v5.3c-.8.4-1.8.6-3.1.9-1.3.3-2.6.4-3.9.4-6.7,0-10-3.6-10-10.6v-18h-4.5v-3.1l4.9-2.6,2.4-7.1h4.4v7.5h9.5v5.4h-9.5v17.9c0,1.7.4,3,1.3,3.7.9.8,2.1,1,3.3,1h.1ZM294.8,76.5h7.1v33.3h-7.1v-33.3ZM301.3,64.6c.8.6,1,1.7,1,3s-.4,2.2-1,2.8-1.7,1-3,1-2.3-.4-3-1c-.6-.6-1-1.7-1-2.8s.4-2.2,1-3c.6-.8,1.7-1,3-1s2.2.4,3,1ZM317,93c0,7.6.8,6.6,2.2,8.5,1.4,1.9,3.6,2.8,6.3,2.8s6.2-.8,9-2.3v6.2c-1.3.8-2.6,1.3-4.1,1.5-1.5.2-3.1.6-5.1.6-5,0-8.9-1.4-11.4-4.4-2.6-3-4-7.2-4-12.7s1.4-9.9,4.1-13,6.7-4.5,11.8-4.5,6.7.6,9.5,1.9l-2.2,5.7c-3-1.2-5.4-1.8-7.5-1.8-5.8,0-8.6,3.9-8.6,11.5ZM325.3,110.3s0,0,0,0c0,0,0,0,0,0h-.1ZM363.8,96c.9,1.3,1.2,2.6,1.2,4.2h0c0,3.3-1.2,5.9-3.6,7.6-2.4,1.7-5.8,2.6-10.2,2.6s-8-.6-10.7-2.1v-6.2c3.9,1.8,7.6,2.7,10.9,2.7s6.6-1.3,6.6-4-.3-1.5-.8-2.1-1.3-1.2-2.4-1.8c-1.2-.6-2.7-1.3-4.6-2.1-3.9-1.5-6.4-3-7.9-4.5s-2.1-3.5-2.1-5.8,1.2-5,3.5-6.7c2.3-1.7,5.4-2.3,9.4-2.3s7.6.8,11.1,2.4l-2.3,5.3c-3.6-1.5-6.6-2.2-9.1-2.2-3.7,0-5.7,1-5.7,3.2s.5,1.9,1.4,2.7c.9.8,3.1,1.7,6.4,3,2.7,1,4.8,2.1,6.1,3,1.3.9,2.2,1.9,2.8,3.1ZM385.9,75.8c-4.8,0-8.5,1.5-11.2,4.6-2.7,3.1-4.1,7.6-4.1,12.9s1.5,9.5,4.4,12.5,7.1,4.5,12.2,4.5v.2c2.3,0,4.2.1,6-.3s3.6-1,5.3-1.8v-5.8c-2,.8-3.8,1.4-5.5,1.8-1.6.4-2.5.5-5.5.5s-5.5-.8-7-2.6c-1.6-1.8-2.5-4.3-2.6-7.5h22.3v-3.9c0-4.8-1.3-8.4-3.9-11.1-2.5-2.7-5.6-4-10.4-4ZM378.2,89.7c.2-2.8,1.1-4.9,2.4-6.3,1.3-1.4,3.1-2.2,5.4-2.2h.1c2.2,0,4.1.8,5.4,2.2,1.3,1.4,1.9,3.6,1.9,6.3h-15.2ZM431.1,79c-2.2-1.9-5.5-2.8-9.7-2.8s-3.9.3-6.1.8c-2.2.5-4.1,1.3-5.9,2.2l2.3,5c1.4-.6,2.9-1.3,4.5-1.8,1.6-.5,2.9-.8,4.9-.8s3.6.5,4.6,1.5c1,1.1,1.5,2.6,1.5,4.8v1.9h-5.8c-5.3.1-9.1,1.1-11.7,2.8-2.6,1.6-3.9,4.4-3.9,7.7s.8,5.7,2.7,7.5,5.1,2.7,7.7,2.7,4.6-.6,6.3-1.2c1.7-.6,3.4-2,4.9-4.1h.3l1.4,4.6h.2c0,.1,5,.1,5,.1v-22.1c0-4-1-6.9-3.2-8.8ZM427,96.6c0,2.6-.8,4.7-2.3,6.1-1.6,1.4-3.6,2.2-6.1,2.2-1.7,0-3.2-.4-4.1-1.2-.9-.8-1.3-1.5-1.3-3.5s.8-3.6,2.3-4.6,4-1.5,7.3-1.8h4.2v2.8ZM461,75.8c1.4,0,2.6.1,3.5.3l-.6,6.6c-1-.3-2.1-.4-3.1-.4-2.8,0-5.1.9-7,2.8s-2.7,4.2-2.7,7.2v17.5h-7.1v-33.3h5.5l.9,5.9h.4c1.2-1.9,2.6-3.6,4.4-4.8,1.8-1.2,3.7-1.8,5.8-1.8h0ZM475.8,93c0,7.6.8,6.6,2.2,8.5s3.6,2.8,6.3,2.8,6.2-.8,9-2.3v6.2c-1.3.8-2.6,1.3-4.1,1.5-1.5.2-3.1.6-5.1.6-5,0-8.9-1.4-11.4-4.4-2.6-3-4-7.2-4-12.7s1.4-9.9,4.1-13,6.7-4.5,11.8-4.5,6.7.6,9.5,1.9l-2.2,5.7c-3-1.2-5.4-1.8-7.5-1.8-5.8,0-8.6,3.9-8.6,11.5ZM484.1,110.3s0,0,0,0c0,0,0,0,0,0h-.1ZM530.8,88.2v21.6h-7.2v-20.6c0-2.6-.5-4.5-1.5-5.8-1-1.3-2.7-1.9-4.9-1.9s-5.1.9-6.6,2.7c-1.4,1.8-2.1,4.8-2.1,8.9v16.7h-7.1v-47h7.1v12c0,1.9,0,4-.4,6.2h.5c1-1.5,2.3-2.8,4-3.7,1.7-.9,3.7-1.3,6.1-1.3,8.1,0,12.1,4.1,12.1,12.2ZM73.6,108.5c.9-3.1,1.4-6.3,1.7-9.7v.2c-.3,3.3-.8,6.6-1.7,9.7,0,.6-.4,1.3-.5,1.8h26.9c8.5,0,15.3-7,15.3-15.4s-6.8-15.4-15.3-15.4v-.2H31.5c-1.5,4.9-2.3,10-2.3,15.4s.8,10.6,2.3,15.4h41.6c.1-.6.4-1.3.5-1.8ZM73.6,81.3c.9,3.1,1.4,6.3,1.7,9.7-.3-3.3-.8-6.6-1.7-9.7ZM104.6,115.7c7.3,0,14,3.1,18.8,8-9.3,13.8-25,22.9-42.9,22.9s-20.2-3.1-28.3-8.5c0,0,.1,0,.2-.1-8.3-5.4-14.9-13.3-18.9-22.4h71.1ZM67.6,67.8c-.4-.7-.9-1.5-1.3-2.2.5.7,1,1.5,1.4,2.3,1.3,2.1,2.4,4.2,3.5,6.6h33.5c7.3,0,14-3.1,18.8-8-9.3-13.8-25-22.9-42.9-22.9h0c-10.4,0-20.2,3-28.3,8.4,1.1.7,2,1.4,3,2.1-1-.7-2-1.4-3-2.1-8.2,5.4-14.8,13.3-18.9,22.4h37.7c-1-2.3-2.2-4.5-3.5-6.6ZM58.2,56.5c.9.8,1.8,1.7,2.7,2.6-.9-.9-1.8-1.7-2.7-2.6Z"/>
</svg>