<svg xmlns="http://www.w3.org/2000/svg" version="1.1" viewBox="0 0 84.3 64">
<path d="M74.1,49.6c-2.3.6-3.8,0-5.1-1.9l-9.2-12.7-1.3-1.8-10.7,14.5c-1.2,1.7-2.5,2.5-4.8,1.9l13.7-18.4-12.8-16.7c2.2-.4,3.7-.2,5.1,1.8l9.5,12.9,9.6-12.8c1.2-1.7,2.6-2.4,4.8-1.8l-5,6.6-6.7,8.8c-.8,1-.7,1.7,0,2.7l12.8,17ZM10.2,30.9l1.1-5.5c3.1-10.9,15.6-15.5,24.2-8.7,5.1,4,6.3,9.6,6.1,15.9H13.1c-.4,11.3,7.7,18.2,18.1,14.7,3.6-1.2,5.8-4.1,6.9-7.7.5-1.8,1.5-2.1,3.1-1.6-.9,4.5-2.8,8.2-6.9,10.5-6.1,3.5-14.9,2.4-19.5-2.5-2.7-2.8-3.9-6.4-4.4-10.2,0-.6-.2-1.2-.4-1.8,0-1,0-2.1,0-3.1h0ZM13.2,30.1h25.7c-.2-8.2-5.3-14-12.3-14.1-7.7,0-13.2,5.6-13.5,14.1Z"/>
</svg>