<svg xmlns="http://www.w3.org/2000/svg" version="1.1" viewBox="0 0 1039.1 656">
<path d="M197.5,178.1c-4-4.1-9.6-6.5-15.9-6.5s-11.8,2.5-15.8,6.5h-.1c-4,4-6.5,9.6-6.5,15.8s2.5,11.8,6.5,15.8h.1c4,4.1,9.5,6.6,15.8,6.6s11.8-2.5,15.9-6.5h0c4-4.1,6.5-9.7,6.5-15.9s-2.5-11.8-6.5-15.8h0ZM181.7,484.5c6.2,0,11.8-2.5,15.9-6.5h0c4-4.1,6.5-9.7,6.5-15.9s-2.5-11.8-6.5-15.9h0c-4-4.1-9.6-6.6-15.9-6.6s-11.8,2.5-15.8,6.6h-.1c-4,4-6.5,9.6-6.5,15.9s2.5,11.8,6.5,15.8h.1c4,4.1,9.5,6.6,15.8,6.6ZM303.6,416.7c5.5-1.5,10.6-5,13.6-10.4l.4-.8c2.7-5.1,3.2-11,1.8-16.2-1.5-5.6-5.1-10.5-10.4-13.6l-.3-.2c-5.2-2.9-11.2-3.5-16.7-2-5.6,1.4-10.6,5.1-13.6,10.4-3.1,5.3-3.7,11.4-2.3,17,1.5,5.5,5.1,10.5,10.4,13.6h0c5.4,3.1,11.4,3.6,17,2.2h.1ZM204.6,305.1c-5.9-5.9-14-9.5-23-9.5s-17.1,3.7-22.9,9.5c-5.8,5.9-9.4,13.9-9.4,22.9s3.6,17.1,9.4,23c5.9,5.8,14,9.5,22.9,9.5s17.1-3.6,23-9.5,9.5-14,9.5-23-3.6-17.1-9.5-22.9ZM191.7,266.9c13,2.1,24.7,8.4,33.7,17.4h0c1.4,1.4,2.8,3,4.1,4.5l22.4-12.9c-3-9.1-3.1-18.6-.7-27.5,3.2-11.9,10.9-22.6,22.5-29.3l.4-.2c11.5-6.5,24.5-7.8,36.2-4.7,11.9,3.2,22.7,11,29.3,22.5h0c6.7,11.5,8,24.7,4.8,36.6s-10.9,22.7-22.5,29.3l-3.1,1.8h-.3c-10.7,5.1-22.5,5.9-33.3,3-8.9-2.4-17-7.3-23.4-14.3l-22.3,12.9c2.6,6.8,4,14.1,4,21.8s-1.4,15.1-4,21.9l22.3,12.9c6.4-7.1,14.5-12,23.4-14.3,11.9-3.3,25.1-1.9,36.7,4.9l.7.3h0c11.1,6.8,18.6,17.2,21.8,29,3.2,11.8,1.8,25-4.8,36.6l-.4.8h0c-6.7,11-17.2,18.6-28.9,21.8-11.9,3.1-25.1,1.8-36.7-4.8h0c-11.6-6.8-19.3-17.5-22.5-29.4-2.4-8.9-2.3-18.4.7-27.4l-22.4-12.9c-1.3,1.6-2.7,3.1-4.1,4.5h0c-8.9,9-20.6,15.3-33.7,17.4v25.8c9.3,1.9,17.6,6.6,24.1,13.1h0c8.7,8.8,14.1,20.9,14.1,34.2s-5.4,25.3-14.1,34h0c-8.8,8.9-20.9,14.3-34.2,14.3s-25.3-5.4-34.1-14.1h0c-8.7-8.9-14.2-20.9-14.2-34.2s5.4-25.4,14.2-34.1h0c6.5-6.5,14.8-11.2,24.1-13.1v-25.8c-13-2.1-24.7-8.3-33.6-17.3h0c-11.1-11.3-18.1-26.7-18.1-43.8s7-32.5,18.1-43.7h0c8.9-9,20.6-15.2,33.6-17.4v-25.7c-9.2-2-17.6-6.6-24.1-13.1h0c-8.7-8.8-14.2-20.9-14.2-34.2s5.4-25.4,14.2-34.1h0c8.8-8.8,20.9-14.2,34.1-14.2s25.4,5.4,34.2,14.2h0c8.7,8.7,14.1,20.9,14.1,34.1s-5.4,25.3-14.1,34.1h0c-6.5,6.6-14.8,11.2-24.1,13.2v25.7h0ZM317.3,249.8l-.2-.3c-3.1-5.2-8-8.7-13.4-10.2-5.6-1.5-11.7-.9-17.1,2.2h0c-5.4,3-9,8-10.5,13.6-1.5,5.5-.8,11.7,2.3,17h.1c3.1,5.4,8,8.9,13.5,10.4,5.5,1.6,11.7.9,17-2.2h.3c5.2-3.3,8.7-8.2,10.2-13.6,1.5-5.6.9-11.7-2.2-17h0ZM416.4,257.3h24.9v76.1l36-39.8h29.9l-43.4,46.1,43.6,58.4h-28.6l-37.5-52.2v52.2h-24.9v-140.9h0ZM536.2,346.4c0,13,9.3,31.8,31.8,31.8s23-7.2,27.8-16.7c2.5-4.6,3.6-9.5,4-14.7.2-5-.8-10.1-2.9-14.7-4.4-9.9-14.1-18.4-29.1-18.4s-31.6,16.4-31.6,32.5v.2h0ZM624.5,398.2h-25v-15c-6.6,12.2-20.5,18.3-35.2,18.3-33.5,0-53.1-26.1-53.1-55.6s23.8-55.4,53.1-55.4,30.6,10.1,35.2,18.5v-15.2h25v104.5h0ZM652.8,312.9h-12.9v-19.2h12.9v-5.9c0-31.1,23.6-32.9,41.5-33.1v19.2c-6.3,0-16.6,0-16.6,14.7v5.1h16.6v19.2h-16.6v85.3h-25v-85.3h0ZM711.3,257.3h24.9v76.1l36-39.8h29.9l-43.4,46.1,43.6,58.4h-28.6l-37.5-52.2v52.2h-24.9v-140.9h0ZM831,346.4c0,13,9.3,31.8,31.8,31.8s23-7.2,27.8-16.7c2.5-4.6,3.6-9.5,4-14.7.2-5-.8-10.1-2.9-14.7-4.4-9.9-14.1-18.4-29.1-18.4s-31.6,16.4-31.6,32.5v.2h0ZM919.4,398.2h-24.9v-15c-6.7,12.2-20.6,18.3-35.2,18.3-33.5,0-53.1-26.1-53.1-55.6s23.8-55.4,53.1-55.4,30.6,10.1,35.2,18.5v-15.2h24.9v104.5h0Z"/>
</svg>