<svg xmlns="http://www.w3.org/2000/svg" version="1.1" viewBox="0 0 120 60">
<path class="cls-1" d="M16.9,30.3l-3.3,1c-.2-1.5.2-3,1-4.3h0s2.6,2.3,2.6,2.3h0c.2.2.3.6,0,.8,0,0-.2.1-.3.2h0ZM17.4,32.3h0s0,0-.1,0l-3.4.6c.5,1.4,1.5,2.6,2.7,3.4l1.3-3.2h0c0,0,0-.2,0-.2,0-.3-.3-.6-.6-.6ZM18.7,27.8c.3,0,.6-.2.6-.6h0l.2-3.5c-.2,0-.5,0-.7.1-1.2.3-2.4.9-3.3,1.8l2.8,2c0,0,.2.1.3.1ZM19.4,31.3l1,.5,1-.5.2-1-.6-.8h-1.1l-.7.8.2,1ZM21.5,27.6c.2.3.6.3.8,0l2.8-2c-1.1-1-2.5-1.7-3.9-1.9l.2,3.5c0,.1,0,.3.1.4ZM20.8,34c-.1-.2-.3-.3-.5-.3h0c-.2,0-.4.1-.5.3l-1.7,3c1.2.4,2.5.5,3.7.2.2,0,.4-.1.7-.2l-1.7-3h0ZM23.2,32.3h0c0,0-.1,0-.2,0-.3.1-.4.5-.3.8l1.3,3.2c1.3-.8,2.2-2,2.7-3.5l-3.4-.6s0,0-.1,0ZM35.7,35.1l-7.6,9.5c-.4.5-1,.8-1.6.8h-12.2c-.6,0-1.2-.3-1.6-.8l-7.6-9.5c0,0,0-.1-.1-.2-.3-.5-.4-1.1-.3-1.6l2.7-11.8c.1-.6.6-1.1,1.1-1.4l11-5.3c.3-.1.5-.2.8-.2.4,0,.7,0,1,.2l11,5.2c.6.3,1,.8,1.1,1.4l2.7,11.8c.1.6,0,1.3-.4,1.8ZM31.9,32.8c0-.2-.3-.4-.5-.4h-.2c-.2,0-.4,0-.6,0-.4,0-.8,0-1.2-.2-.1,0-.2-.2-.3-.3h-.3c.3-2.2-.2-4.3-1.4-6l.2-.2c0-.1,0-.3.1-.4.3-.3.6-.5,1-.7.2,0,.4-.2.5-.3h.1c.3-.3.4-.7.2-1,0-.1-.2-.2-.3-.3-.2,0-.5,0-.7.2h-.1c-.2.3-.3.4-.4.6-.3.3-.6.6-.9.8-.1,0-.3,0-.4,0l-.3.2c-1.4-1.5-3.4-2.5-5.5-2.6,0,0,0-.2,0-.3-.1,0-.2-.2-.2-.3,0-.4,0-.8,0-1.2,0-.2,0-.4,0-.6v-.2c0-.4-.3-.7-.6-.7h0c-.4,0-.7.3-.6.7v.2c0,.2,0,.4,0,.6,0,.4,0,.8,0,1.2,0,.1-.1.3-.2.3v.3c-.4,0-.8,0-1.2.2-1.6.4-3.1,1.2-4.3,2.5l-.2-.2c-.1,0-.3,0-.4,0-.3-.2-.6-.5-.9-.8-.1-.2-.3-.3-.4-.5h-.1c-.1-.2-.3-.3-.5-.3-.2,0-.4,0-.5.2-.2.3-.2.7.2,1h.1c.2.2.4.3.5.4.4.2.7.4,1,.7,0,.1.1.2.1.4l.2.2c-1.2,1.7-1.6,3.9-1.3,5.9h-.3c0,.2-.2.3-.3.4-.4.1-.8.2-1.2.2-.2,0-.4,0-.6,0h-.2s0,0,0,0c-.4,0-.6.4-.6.7,0,.1,0,.3.2.4.2.2.4.2.7.2h.2c.2,0,.4-.2.6-.2.4-.1.8-.3,1.1-.3.1,0,.3,0,.4.1h.3c.6,1.9,2,3.6,3.8,4.7v.3c0,.1,0,.2,0,.4-.2.4-.4.7-.6,1.1-.1.2-.2.3-.4.5v.2c-.3.3-.2.7.2.9.1,0,.3.1.4,0,.2,0,.5-.2.5-.4v-.2c.2-.2.2-.4.3-.6.2-.4.3-.9.5-1.2,0,0,.2-.1.3-.1l.2-.3c2,.8,4.1.8,6.1,0v.3c.3,0,.4,0,.5.2.2.4.3.7.5,1.1,0,.2.1.4.2.6v.2c.2.3.6.5.9.4.1,0,.2-.1.3-.3.1-.2.1-.5,0-.7v-.2c-.2-.2-.3-.4-.4-.5-.2-.3-.4-.7-.6-1,0-.1,0-.3,0-.4,0,0,0-.2-.1-.3,1.8-1.1,3.1-2.8,3.8-4.8h.3c.1,0,.2,0,.4,0,.4,0,.8.2,1.1.3.2,0,.4.2.6.2,0,0,.1,0,.2,0h0c.3.1.7,0,.8-.4,0-.1,0-.3,0-.4ZM26.1,27l-2.6,2.3c0,0-.1.2-.2.3,0,.3,0,.6.4.7h0s3.3,1,3.3,1c.1-1.5-.2-3-1-4.3h0ZM63.2,28.9c-.3-.3-.6-.6-1-.8-.4-.2-.9-.3-1.4-.3-.3,0-.5,0-.8,0-.2,0-.5.1-.7.2v-3.7l-2.1.3v10.3c.2,0,.4.1.6.2.2,0,.5,0,.8.1.3,0,.5,0,.8,0,.3,0,.5,0,.8,0,.6,0,1.1,0,1.6-.3.5-.2.9-.4,1.2-.8.3-.3.6-.8.7-1.2.2-.5.3-1.1.3-1.6,0-.5,0-1.1-.2-1.6-.1-.4-.3-.9-.6-1.2ZM61.9,31.6c0,.6-.1,1.1-.4,1.6-.3.4-.8.6-1.3.6-.2,0-.4,0-.5,0s-.3,0-.4,0v-3.8c.2,0,.3-.2.5-.2.2,0,.4,0,.6,0,1,0,1.5.7,1.5,2h0ZM68.8,27.8c-.4,0-.9,0-1.3.3-.4.2-.8.4-1.1.7-.3.4-.6.8-.8,1.2-.2.5-.3,1.1-.3,1.7h0c0,.5,0,1,.2,1.5.1.5.4.9.7,1.2.3.4.8.6,1.2.8.6.2,1.1.3,1.7.3.3,0,.5,0,.8,0,.3,0,.5,0,.7-.1.2,0,.4,0,.6-.1.2,0,.3-.1.4-.2l-.3-1.7c-.3.1-.6.2-.9.3-.4,0-.7.1-1.1.1-.5,0-1-.1-1.4-.4-.3-.2-.6-.6-.6-1h4.7c0-.1,0-.2,0-.4,0-.1,0-.3,0-.4,0-1.2-.3-2.2-.9-2.8-.6-.6-1.4-1-2.5-1ZM70.2,30.9h-2.8c0-.2,0-.4.1-.5,0-.2.1-.3.3-.5.1-.1.3-.2.4-.3.2,0,.4-.1.6-.1.2,0,.4,0,.6.1.2,0,.3.2.4.3.1.1.2.3.2.4,0,.2,0,.3,0,.5h0ZM47.4,34.3c.2.4.4.7.6,1h-2.4c-.1-.2-.3-.5-.5-.8-.2-.3-.4-.6-.6-.9-.2-.3-.4-.6-.7-.8-.2-.2-.5-.5-.7-.7v3.2h-2.1v-10.5l2.1-.3v6.1h0s0,0,0,0l.6-.7c.2-.2.4-.5.6-.7l.6-.7c.2-.2.3-.4.5-.6h2.5c-.5.6-1,1.1-1.4,1.6-.5.5-1,1-1.5,1.6.3.3.6.6.9.9.3.3.6.7.9,1.1.3.4.5.7.8,1.1ZM53.1,28h2.1v7.1c-.5.1-.9.2-1.4.3-.6,0-1.2.1-1.8.1-.5,0-1.1,0-1.6-.3-.4-.1-.7-.4-1-.7-.2-.3-.4-.7-.5-1.1-.1-.5-.2-.9-.2-1.4v-4.1h2.1v3.8c0,.7,0,1.2.3,1.5.2.3.5.4,1,.4s.3,0,.5,0c.2,0,.3,0,.4,0v-5.7ZM115.5,33.3c0,.7-.3,1.3-.8,1.6-.5.4-1.3.6-2.3.6-.5,0-1.1,0-1.6-.2-.3,0-.6-.2-.9-.3l.3-1.7c.4.1.7.2,1.1.3.4,0,.7.1,1.1.1.3,0,.6,0,.8-.1.2,0,.3-.3.2-.4,0-.2-.1-.4-.3-.4-.3-.2-.6-.3-.9-.4-.3-.1-.6-.2-.9-.4-.2-.1-.5-.3-.7-.5-.2-.2-.3-.4-.4-.6-.1-.3-.2-.6-.2-.9,0-.6.3-1.2.8-1.6.5-.4,1.2-.6,2.1-.6.4,0,.9,0,1.3.1.3,0,.7.1,1,.3l-.4,1.6c-.3,0-.5-.2-.8-.2-.3,0-.6-.1-1,0-.7,0-1,.2-1,.5,0,0,0,.1,0,.2,0,0,0,.1.2.2.1,0,.2.1.3.2.1,0,.3.1.6.2.4.1.8.3,1.1.5.3.1.5.3.7.5.2.2.3.4.4.6,0,.3.1.5.1.8ZM105.3,27.8c-.4,0-.9,0-1.3.3-.4.2-.8.4-1.1.7-.3.4-.6.8-.8,1.2-.2.5-.3,1.1-.3,1.7h0c0,.5,0,1,.2,1.5.1.5.4.9.7,1.2.3.4.8.6,1.2.8.6.2,1.1.3,1.7.3.3,0,.5,0,.8,0,.3,0,.5,0,.7-.1.2,0,.4,0,.6-.1.2,0,.3-.1.4-.2l-.3-1.7c-.3.1-.6.2-.9.3-.4,0-.7.1-1.1.1-.5,0-1-.1-1.4-.4-.3-.2-.6-.6-.6-1h4.7c0-.1,0-.2,0-.4,0-.1,0-.3,0-.4,0-1.2-.3-2.2-.9-2.8-.6-.6-1.4-1-2.5-1ZM103.9,30.9c0-.2,0-.4.1-.5,0-.2.1-.3.3-.5.1-.1.3-.2.4-.3.2,0,.4-.1.6-.1.2,0,.4,0,.6.1.2,0,.3.2.4.3.1.1.2.3.2.4,0,.2,0,.3,0,.5h-2.8ZM100.6,33.5l.3,1.6c-.3.1-.6.2-.8.3-.4,0-.8.1-1.1.1-.5,0-1,0-1.4-.2-.3-.1-.7-.4-.9-.6-.2-.3-.4-.6-.5-1,0-.4-.1-.9-.1-1.3v-6.2h0l2.1-.3v2.2h2.5v1.7h-2.5v2.6c0,.4,0,.7.2,1,.2.3.5.4.9.4.2,0,.5,0,.7,0,.2,0,.4,0,.6-.2ZM78.2,28c.1,0,.3,0,.4.1l-.3,1.7c-.2,0-.4,0-.6-.1-.3,0-.5,0-.8,0-.2,0-.3,0-.5,0-.1,0-.3,0-.4,0v5.6h-2.1v-7c.4-.1.9-.3,1.3-.4.6-.1,1.1-.2,1.7-.2.1,0,.2,0,.4,0,.2,0,.3,0,.5,0,.2,0,.3,0,.5,0ZM85.9,29.8c.1.4.2.9.2,1.4v4.2h-2.1v-3.9c0-.7,0-1.1-.3-1.4-.2-.3-.5-.4-1-.4s-.3,0-.5,0c-.2,0-.3,0-.4,0v5.7h-2.1v-7.1h0c.5-.1.9-.2,1.4-.3.6,0,1.2-.1,1.8-.1.5,0,1.1,0,1.6.2.4.1.7.4,1,.7.2.3.4.7.5,1.1ZM91.1,27.8c-.4,0-.9,0-1.3.3-.4.2-.8.4-1.1.7-.3.4-.6.8-.8,1.2-.2.5-.3,1.1-.3,1.7h0c0,.5,0,1,.2,1.5.1.5.4.9.7,1.2.3.4.8.6,1.2.8.6.2,1.1.3,1.7.3.3,0,.5,0,.8,0,.3,0,.5,0,.7-.1.2,0,.4,0,.6-.1.2,0,.3-.1.4-.2l-.3-1.7c-.3.1-.6.2-.9.3-.4,0-.7.1-1.1.1-.5,0-1-.1-1.4-.4-.3-.2-.6-.6-.6-1h4.7c0-.1,0-.2,0-.4,0-.1,0-.3,0-.4,0-1.2-.3-2.2-.9-2.8-.6-.6-1.4-1-2.5-1ZM92.5,30.9h-2.8c0-.2,0-.4.1-.5,0-.2.1-.3.3-.5.1-.1.3-.2.4-.3.2,0,.4-.1.6-.1.2,0,.4,0,.6.1.2,0,.3.2.4.3.1.1.2.3.2.4,0,.2,0,.3,0,.5h0Z"/>
</svg>