<svg xmlns="http://www.w3.org/2000/svg" version="1.1" viewBox="0 0 560 225">
<path d="M59.8,160.8s0,0,.1,0c-.8,1-1.5,2.2-1.8,3.6-1,4.6-.3,14.2-.3,14.2l-3.6-1.2s.3-9.8-2.2-15.6c.2.1.3.2.3.2h0c1-2.4,2-9,2.8-18.1.1,7.3,1.1,15.4,4.7,17.1h0ZM64.6,156.9h0s0,0,0,0c0,0,0,0,0,0ZM84,96.8c-7.1-31.4-24-41.7-25.8-45.6-2-2.8-4-7.7-4-7.7h0c.6,3.2,1,13.3,1.2,24.7,2.5,12.2,5.6,39.2,9.2,88.7,8.5-7.9,25-27.7,19.4-60.1ZM59.9,160.7c.5-.3,2.2-1.6,4.7-3.8,0,0-2.7,1.4-4.7,3.8ZM55.7,108.6c.4,13,0,25.5-.7,35.2.1,7.3,1.1,15.4,4.7,17.1h0c0-.1,0-.1.1-.2,1.9-2.4,4.6-3.8,4.7-3.8,0,0,0,0,0,0-3.6-49.5-6.7-76.5-9.2-88.7.3,16.9.2,36.7.3,40.4ZM55.7,108.6c.4,13,0,25.5-.7,35.2.1,7.3,1.1,15.4,4.7,17.1h0c0-.1,0-.1.1-.2,1.9-2.4,4.6-3.8,4.7-3.8,0,0,0,0,0,0-3.6-49.5-6.7-76.5-9.2-88.7.3,16.9.2,36.7.3,40.4ZM48,157.6c-3.3-3.8-1.3-122.1,6.5-93l-.3-21c0-.3-.1-.6-.2-.7-.2,2.8-.3,3.9-2.9,6.7-4.1,3.2-25,20.7-26.7,56.4-1.6,33.6,24.5,53.4,27.6,55.7-.9-2.1-2.2-3.7-4-4.1ZM52.2,161.8c1-2.3,2-8.9,2.8-18,0-6.7.5-12.8.5-12.8l-1-66.4c-7.8-29-9.8,89.2-6.5,93,1.8.4,3.1,1.9,4,4.1.2.1.3.2.3.2h0ZM52.2,161.8c1-2.3,2-8.9,2.8-18,0-6.7.5-12.8.5-12.8l-1-66.4c-7.8-29-9.8,89.2-6.5,93,1.8.4,3.1,1.9,4,4.1.2.1.3.2.3.2h0ZM55.4,68.2c-.2-11.4-.5-21.6-1.2-24.6l.3,21c.3,1,.6,2.2.8,3.6ZM55.4,68.2c-.2-11.4-.5-21.6-1.2-24.6l.3,21c.3,1,.6,2.2.8,3.6ZM55.5,131s-.6,6.1-.5,12.8c.8-9.7,1.2-22.2.7-35.2-.1-3.7,0-23.5-.3-40.4-.3-1.4-.6-2.6-.8-3.6l1,66.4ZM55.5,131s-.6,6.1-.5,12.8c.8-9.7,1.2-22.2.7-35.2-.1-3.7,0-23.5-.3-40.4-.3-1.4-.6-2.6-.8-3.6l1,66.4ZM55.5,131s-.6,6.1-.5,12.8c.8-9.7,1.2-22.2.7-35.2-.1-3.7,0-23.5-.3-40.4-.3-1.4-.6-2.6-.8-3.6l1,66.4ZM410.3,150.4c2.1,1.7,6.3,2.4,10,2.4s9.5-.9,14.1-5c4.7-4.2,7.9-10.7,7.9-21.1s-3.8-18-11.6-22.8c-4.4-2.8-10.1-3.8-16.6-3.8s-3.8,0-4.9.6c-.3.2-.9,1-.9,1.4-.2,1.8-.2,15.3-.2,23.3s0,19.6.2,21c.1,1.2.7,3.3,2,4.1h0ZM390.4,95.6c1.7,0,8.1.3,11.1.3,5.6,0,9.5-.3,20-.3s16.2,2.4,21.5,6.9c6.4,5.5,9.8,13.2,9.8,22.6,0,13.3-6.1,21-12.2,25.3-6.1,4.5-14,7.1-25.2,7.1s-16.3-.2-24.9-.3h-.1c-.4-.8.7-3.9,1.4-3.9,2.3-.3,2.9-.4,4-.8,1.8-.7,2.2-1.7,2.4-4.9.3-6.1.2-13.4.2-21.7s0-17.4-.1-21.1c-.3-3.1-1.6-3.8-4.2-4.4-1.3-.3-3.1-.6-5.6-.9-.2-.6,1.3-3.3,1.8-3.8M479.2,100.4c-.4,0-.9,1.1-.9,1.6,0,3.5-.2,12.8-.2,19.2s.3.5.5.5c1.3,0,4.5.2,7.2.2s6-.5,7.2-1.1c3.2-1.6,4.7-5,4.7-8.8,0-8.6-6-11.8-14.9-11.8s-2.3,0-3.6.2h0ZM501.8,139.9c0-8.7-6.4-13.6-18.1-13.6s-4.2,0-5.1,0-.6.3-.6.5c0,6.2-.1,16.2.2,20.1.2,1.7,1.4,4,2.9,4.7,1.6.9,5.2,1.1,7.7,1.1,6.9,0,13-3.8,13-12.9h0ZM461.2,95.6c.9,0,3.6.3,10.3.3s11.6-.2,17.8-.2,18.3,2.8,18.3,14.2-4,10.2-9.2,12.3c-.3,0-.3.3,0,.4,7.4,1.9,13.9,6.4,13.9,15.1s-5.3,13.8-13,17.1c-4.7,2.1-10.5,2.8-16.4,2.8s-16.5-.5-23.2-.4c-.7-.3.6-3.5,1.2-3.9,1.6,0,2.8-.2,4.5-.7,2.4-.6,2.7-1.4,3-4.9.2-3.1.2-14,.2-21.8v-21.4c-.1-2.8-1.1-3.6-3-4.1-1.5-.3-4-.6-6-.9-.5-.5,1-3.5,1.5-3.8M104.1,157.5c-.2-.3-.3-1-.3-2s.2-1.2.3-1.3c1.9-.3,2.8-.5,3.8-.8,1.8-.4,2.4-1.4,2.5-3.6.3-5.3.3-15.3.2-22.3v-.2c0-.8,0-1.8-.9-2.5-1.4-.9-3.1-1.7-5.3-2.3-.8-.2-1.3-.7-1.3-1.2s.5-1.1,1.6-1.3c2.9-.3,10.5-2.1,13.4-3.5.2.2.5.7.4,1.4v1c0,1-.2,2.1-.2,3.2s.4.6.7.6.4,0,.5-.2c5.7-4.4,10.7-6,13.3-6,4.3,0,7.6,2,10.2,6.3.2.2.4.3.6.3s.4,0,.5-.3c5.2-3.9,10.4-6.3,13.8-6.3,8.2,0,13.1,6.1,13.1,16.3s0,6.7,0,10.1v7.9c0,2,.6,1.8,1.6,2.1,1.2.6,2.9.9,5.1,1.3h0c.2.6-.2,2.9-.5,3.3h-2.2c-1.7,0-4-.2-6.7-.2-5.4,0-8.3.1-11,.3-.2-.7-.3-2.9,0-3.3,1.6-.3,2.4-.5,3.3-.8,1.7-.6,2.2-1.4,2.3-3.6,0-1.6.4-16-.2-19.4-.5-3.5-3.2-7.7-9-7.7s-5.7.9-9,3.4c-.2.2-.3.6-.3.8h0c.4,1.9.4,4,.4,7.3v16.3c0,1.9,1.2,2.4,2.1,2.8.5.1.9.2,1.3.3.8.2,1.6.4,2.8.6.2.4.2,1.5,0,2.5-.1.5-.3.8-.3.8-3-.1-6.1-.2-10.6-.2s-3.6,0-5.5.1h-3.9c-.1-.2-.3-.8-.3-1.7s.2-1.4.3-1.6c.4,0,.8-.1,1.2-.2,1-.2,2-.3,2.8-.6,1.5-.5,2-1.3,2.1-3.2.3-4.4.5-17-.1-20.2-1.1-5.1-4-7.6-8.6-7.6s-6.2,1.3-9,3.4c-.5.3-.8,1.2-.8,2v5.2c0,6.3,0,14.2,0,17.7,0,1.1.5,2.3,2.4,2.8.4.1,1.2.2,2.1.4.5,0,1,.2,1.6.3.2.5,0,2.7-.3,3.3-.9,0-1.9,0-3.2-.1-1.9,0-4.2-.2-6.8-.2s-5.3.1-7,.2c-1.2,0-2.2.1-3.2.1M203.2,120.6c-1.8,0-3.5.5-4.8,1.3-3.5,2.1-5.2,6.3-5.2,12.5,0,11.6,5.8,19.6,14.1,19.6s4.4-.7,6.1-2.1c2.5-2.1,3.9-6.3,3.9-12.3,0-11.4-5.7-19-14.1-19ZM204.8,158.3c-15,0-20.3-11-20.3-21.3s2.9-12.8,8.7-16.7c4.1-2.5,9-4,13.5-4,11.4,0,19.4,8.2,19.4,20s-3.2,14.3-9.2,18.3c-2.9,1.8-7.9,3.7-12.1,3.7M358.4,120.6c-1.8,0-3.5.5-4.8,1.3-3.5,2.1-5.2,6.3-5.2,12.5,0,11.6,5.8,19.6,14.1,19.6s4.4-.7,6.1-2.2c2.5-2.1,3.9-6.3,3.9-12.3,0-11.4-5.7-19-14.1-19h0ZM360,158.3c-15,0-20.3-11-20.3-21.3s2.9-12.8,8.7-16.7c4.1-2.5,9-4,13.5-4,11.4,0,19.4,8.2,19.4,20s-3.2,14.3-9.2,18.3c-2.9,1.8-7.9,3.7-12.1,3.7M308.2,120.2c-4.6,0-7.6,3.6-7.6,9.3s2.6,12.3,9.8,12.3,3.5-.6,4.6-1.8c1.7-1.5,2.8-4.7,2.8-8.1,0-7.4-3.6-11.8-9.6-11.8h0ZM307.6,159.1c-1.7,0-3,.5-3.8.9-3.7,2.3-5.4,4.7-5.4,7.4s1,4.6,3.1,6.4c2.6,2.2,6,3.2,10.6,3.2,9,0,13-4.8,13-9.6s-1.7-5.5-5.1-6.8c-2.6-1-7.1-1.5-12.5-1.5h0ZM308.2,182c-5.4,0-9.3-1.1-12.6-3.7-3.2-2.5-4.7-6.2-4.7-8.7s.2-2.6,1.8-4.4c.9-1.1,3.1-3.1,8.1-6.5.2,0,.3-.2.3-.4s-.1-.4-.3-.4c-4.1-1.6-5.4-4.2-5.8-5.6v-.2c-.1-.6-.2-1.1.5-1.6.6-.4,1.5-1,2.5-1.5,1.5-.9,3.1-1.8,4-2.6.1-.1.2-.3.2-.6s-.2-.4-.3-.5c-6.1-2.1-9.2-6.6-9.2-13.5s2.1-8.5,5.7-11.1c2.5-1.9,8.6-4.3,12.6-4.3h.2c4.1,0,6.4,1,9.7,2.1,1.7.6,3.4.9,5.7.9,3.4,0,4.9-1.1,6.2-2.3,0,.2.2.6.3,1.8,0,1.1-.2,2.8-1.1,4-.7,1-2.3,1.7-3.8,1.7s-.3,0-.4,0c-1.6-.2-2.3-.4-2.3-.4h-.4c-.1.3,0,.5,0,.8v.2c.2.8.6,3.1.6,3.8,0,7.3-2.9,10.4-6,12.8-3,2.2-6.4,3.6-10.3,4h-2.4c-.7.2-2.4,1-2.4,2.6s.8,2.9,4.6,3.2c.8,0,1.6.1,2.5.2,5,.3,11.3.8,14.2,1.8,4.1,1.5,6.6,5.1,6.6,9.5,0,6.5-4.6,12.6-12.4,16.4-3.8,1.8-7.6,2.6-11.7,2.6M283.6,154c-2.2-.3-3.8-.6-5.7-1.5-.3-.2-.7-1.1-.7-1.4-.2-3.1-.2-11.9-.2-17.7s-.8-8.9-2.8-11.8c-2.4-3.4-5.8-5.3-10.2-5.3s-9.1,2.7-13.4,6.3c-.1,0-.8.7-.7-.2,0-1,.2-2.9.3-4.2,0-1.2-.7-1.8-.7-1.8-2.8,1.4-10.7,3.2-13.6,3.5-2.1.4-2.7,2.4-.4,3.2h0c2.4.7,4,1.5,5.2,2.3.9.7.8,1.7.8,2.5,0,6.6,0,16.8-.2,22.3,0,2.2-.7,3-2.3,3.4h.1c-1.2.2-2.2.4-3.7.6-.5.5-.5,3.3,0,3.9,1,0,6.1-.3,10.3-.3s8.8.3,10.3.3c.6-.7.8-3.4.4-3.9-1.7,0-2.9-.3-4.1-.6-1.6-.4-2-1.2-2.1-3-.2-4.6-.2-14.5-.2-21.2s.5-2.8,1.1-3.3c2-1.8,5.3-3,8.2-3s4.7.9,6.1,2.1c1.9,1.6,2.6,3.8,2.8,5.5.4,3.7.3,11.2.3,17.7s-.3,4.4-1.6,4.8c-.6.3-2.2.6-4.1.8-.6.6-.4,3.3,0,3.9,2.6,0,5.6-.3,10-.3s9,.3,10.4.3c.6-.7.8-3.3.4-3.9M526.3,149.1h1.7c1.4,0,1.9-.5,1.9-1.7s-.5-1.7-2-1.7h-1.5v3.4h-.1ZM529.9,154.4l-2-4.3h-1.6v4.3h-1.2v-9.7h2.9c2.1,0,3,1,3,2.7s-.7,2.3-1.9,2.6l2.1,4.4h-1.3ZM528,142.5c-3.9,0-7,3.1-7,7s3.1,7,7,7,7-3.1,7-7-3-7-7-7ZM528,157.3c-4.3,0-7.7-3.4-7.7-7.7s3.4-7.7,7.7-7.7,7.7,3.4,7.7,7.6-3.4,7.8-7.7,7.8"/>
</svg>