<svg xmlns="http://www.w3.org/2000/svg" version="1.1" viewBox="0 0 560 400">
<path d="M243.7,243.1c-6.2,33.6-14.3,58.1-24.5,73.3-7.9,11.8-16.5,17.6-25.9,17.6s-5.6-.8-9.3-2.3v-8.1c1.8.3,3.9.4,6.3.4,4.4,0,7.9-1.2,10.6-3.6,3.2-3,4.8-6.3,4.8-10s-1.3-7.7-3.8-15.5l-16.7-51.9h14.9l12,38.8c2.7,8.8,3.8,15,3.4,18.5,6.5-17.5,11.1-36.6,13.7-57.2h14.4M177.9,310.2h-15.2c-.5-25.7-2-49.9-4.4-72.5h-.1l-23.1,72.5h-11.6l-23-72.5h0c-1.7,21.7-2.8,45.9-3.2,72.5h-13.8c.9-32.3,3.1-62.7,6.7-91h18.8l21.9,66.8h.1l22-66.8h18c3.9,33.1,6.3,63.5,7,91M445.9,310.1h-43.1v-91h14.5v79.8h28.6v11.2M337.4,291.9c-3.7-5.9-5.5-15.4-5.5-28.6,0-22.9,6.9-34.4,20.8-34.4s12.6,2.7,16,8.2c3.7,5.9,5.5,15.4,5.5,28.3,0,23.1-6.9,34.6-20.8,34.6s-12.6-2.7-16-8.2M391.4,312.3l-16.7-8.2c1.5-1.2,2.9-2.5,4.2-4.1,7.1-8.3,10.6-20.7,10.6-37.1,0-30.1-11.8-45.1-35.4-45.1s-20.6,3.8-27,11.5c-7.1,8.4-10.6,20.7-10.6,36.9s3.1,27.7,9.4,35.2c5.7,6.7,14.4,10.1,25.9,10.1s8.3-.5,11.9-1.6l21.7,12.7,5.9-10.2M310.2,284.9c0,7.7-2.8,14-8.5,19-5.6,4.9-13.2,7.4-22.7,7.4s-17.5-2.8-25.8-8.5l3.9-7.8c7.2,3.6,13.7,5.4,19.5,5.4s9.7-1.2,12.8-3.6c3.1-2.4,4.9-5.8,4.9-10.1s-3.8-10-10.6-13.9c-6.4-3.5-19.1-10.8-19.1-10.8-6.9-5-10.3-10.4-10.3-19.4s2.6-13.3,7.7-17.9c5.2-4.5,11.8-6.8,20-6.8s16.1,2.3,23,6.7l-3.5,7.8c-5.9-2.5-11.7-3.8-17.5-3.8s-8.2,1.1-10.7,3.4c-2.5,2.2-4.1,5.1-4.1,8.6,0,5.4,3.8,10.1,10.9,14,6.4,3.5,19.5,11,19.5,11,7.1,5,10.6,10.4,10.6,19.2M456.2,310.1h2.4v-9.3h3.1v-1.9h-8.8v1.9h3.3v9.3ZM474.5,310.1h2.3v-11.1h-3.4l-2.8,7.6-3-7.6h-3.3v11.1h2.1v-8.5h.1l3.2,8.5h1.6l3.2-8.5v8.5h0ZM325.2,66c-3.8,0-7.2,1.4-8.9,5.6-3,7.1,4.4,14.2,6.9,17.8,1.9,2.5,4.3,5.4,5.6,8.2.8,1.9,1,3.9,1.8,5.8,1.8,4.8,3.4,10.2,5.7,14.7,1.2,2.3,2.5,4.7,4,6.8.9,1.2,2.4,1.8,2.7,3.7-1.5,2.2-1.6,5.5-2.5,8.2-3.9,12.4-2.4,27.8,3.2,36.9,1.8,2.7,5.9,8.8,11.5,6.5,4.9-2,3.8-8.2,5.3-13.7.3-1.3.1-2.2.8-3.1v.2c1.5,3.1,3.1,6,4.5,9.1,3.4,5.4,9.3,11,14.3,14.7,2.6,2,4.7,5.4,8,6.6v-.3h-.2c-.7-1-1.6-1.4-2.5-2.2-2-2-4.2-4.4-5.7-6.6-4.6-6.2-8.7-13-12.3-20-1.8-3.4-3.3-7.1-4.7-10.6-.7-1.3-.7-3.3-1.8-4-1.6,2.4-4.1,4.5-5.3,7.5-2.1,4.7-2.3,10.6-3.1,16.6-.4.1-.2,0-.4.2-3.5-.9-4.7-4.5-6-7.6-3.3-7.8-3.8-20.3-1-29.4.8-2.3,4.1-9.6,2.7-11.8-.7-2.1-2.9-3.3-4.1-5-1.4-2.1-3-4.7-3.9-7-2.6-6.2-4-13-6.8-19.1-1.3-2.9-3.6-5.8-5.5-8.5-2.1-3-4.4-5.1-6-8.6-.5-1.2-1.3-3.2-.4-4.5.2-.9.7-1.2,1.5-1.4,1.4-1.2,5.5.3,6.9,1,4.1,1.6,7.5,3.2,10.8,5.5,1.5,1.1,3.2,3.2,5.2,3.7h2.3c3.5.8,7.5.2,10.7,1.2,5.8,1.9,11.1,4.6,15.8,7.6,14.4,9.1,26.2,22.1,34.2,37.6,1.3,2.5,1.9,4.8,3.1,7.5,2.3,5.4,5.2,10.9,7.5,16.2,2.3,5.2,4.5,10.4,7.8,14.7,1.6,2.3,8.2,3.5,11.2,4.7,2.2,1,5.6,1.9,7.6,3.1,3.7,2.3,7.4,4.9,11,7.5,1.7,1.3,7.2,4.1,7.6,6.3h0c-8.8-.2-15.6.7-21.3,3.1-1.6.7-4.3.7-4.5,2.7.9.9,1,2.3,1.8,3.5,1.3,2.2,3.6,5.2,5.7,6.7,2.3,1.8,4.6,3.5,7,5,4.3,2.7,9.1,4.2,13.3,6.8,2.4,1.5,4.8,3.5,7.2,5.2,1.2.9,2,2.3,3.5,2.9v-.3c-.8-1-1-2.4-1.8-3.5-1.1-1.1-2.2-2.1-3.3-3.2-3.2-4.3-7.1-8-11.4-11.1-3.5-2.4-11.2-5.7-12.6-9.8,0,0-.1-.1-.2-.2,2.4-.2,5.3-1.1,7.6-1.8,3.7-1,7.1-.8,11-1.8,1.8-.4,3.5-1,5.3-1.5v-1c-2-2-3.4-4.6-5.5-6.5-5.6-4.8-11.7-9.6-18.1-13.5-3.4-2.2-7.8-3.6-11.4-5.5-1.3-.7-3.5-1-4.3-2.1-2-2.4-3.1-5.6-4.5-8.5-3.2-6-6.2-12.7-9-19.1-2-4.3-3.2-8.6-5.6-12.5-11.3-18.7-23.6-30-42.4-41.1-4.1-2.3-8.9-3.3-14-4.5-2.7,0-5.5-.3-8.2-.4-1.8-.8-3.5-2.9-5-3.9-3.9-2.5-11.7-6.7-18.1-6.8h0l-.3.4ZM352.2,93.2c-1.9,0-3.2.2-4.5.6v.2h.2c.9,1.8,2.4,3,3.5,4.5.9,1.8,1.7,3.5,2.5,5.3l.2-.2c1.5-1.1,2.3-2.9,2.3-5.5-.7-.8-.8-1.5-1.3-2.3-.7-1.1-2.1-1.6-3-2.5h0Z"/>
</svg>