<svg xmlns="http://www.w3.org/2000/svg" version="1.1" viewBox="0 0 120 60">
<path d="M106.8,25.3c-.3,0-.5,0-.8.2l-7.4,4.3c-.5.3-.8.8-.8,1.3v8.5c0,.6.3,1.1.8,1.3l1.9,1.1c.9.5,1.3.5,1.7.5,1.4,0,2.2-.8,2.2-2.3v-8.4c0-.1-.1-.2-.2-.2h-.9c-.1,0-.2,0-.2.2v8.4c0,.6-.7,1.3-1.8.8l-2-1.2c0,0-.1-.1-.1-.2v-8.5c0,0,0-.2.1-.2l7.4-4.2c0,0,.2,0,.2,0l7.4,4.2c0,0,.1.1.1.2v8.5c0,0,0,.2-.1.2l-7.4,4.2c0,0-.2,0-.2,0l-1.9-1.1c0,0-.1,0-.2,0-.5.3-.6.3-1.1.5-.1,0-.3.1,0,.3l2.5,1.5c.2.1.5.2.8.2s.5,0,.8-.2l7.4-4.2c.5-.3.8-.8.8-1.3v-8.5c0-.6-.3-1.1-.8-1.3l-7.4-4.3c-.2-.1-.5-.2-.8-.2h0ZM108.8,31.4c-2.1,0-3.4.9-3.4,2.4s1.2,2.1,3.3,2.3c2.4.2,2.6.6,2.6,1.1,0,.8-.7,1.2-2.2,1.2s-2.4-.5-2.5-1.5c0-.1,0-.2-.2-.2h-1c-.1,0-.2,0-.2.2,0,1.2.7,2.7,3.9,2.7s3.7-.9,3.7-2.5-1.1-2-3.4-2.3c-2.3-.3-2.5-.5-2.5-1s.2-1,1.9-1,2.1.3,2.3,1.3c0,0,.1.2.2.2h1c0,0,.1,0,.2,0,0,0,0,0,0-.2-.1-1.8-1.3-2.6-3.7-2.6h0ZM63.4,14.2c0,0-.2,0-.2,0-.1,0-.2.2-.2.4v12c0,.1,0,.2-.2.3-.1,0-.2,0-.3,0l-2-1.1c-.3-.2-.6-.2-.9,0l-7.8,4.5c-.3.2-.5.5-.5.8v9c0,.3.2.6.5.8l7.8,4.5c.3.2.6.2.9,0l7.8-4.5c.3-.2.5-.5.5-.8v-22.5c0-.3-.2-.7-.5-.8l-4.7-2.6c0,0-.2,0-.2,0h0ZM13,25.4c-.1,0-.3,0-.4.1l-7.8,4.5c-.3.2-.5.5-.5.8v12.1c0,.2.1.3.3.4.1,0,.3,0,.5,0l4.6-2.7c.3-.2.5-.5.5-.8v-5.7c0-.3.2-.6.5-.8l2-1.1c.1,0,.3-.1.5-.1.2,0,.3,0,.5.1l2,1.1c.3.2.5.5.5.8v5.7c0,.3.2.6.5.8l4.6,2.7c.1,0,.3,0,.5,0,.1,0,.2-.2.2-.4v-12.1c0-.3-.2-.6-.5-.8l-7.8-4.5c-.1,0-.3-.1-.4-.1h0ZM83.3,25.6c-.2,0-.3,0-.5.1l-7.8,4.5c-.3.2-.5.5-.5.8v9c0,.3.2.6.5.8l7.8,4.4c.3.2.6.2.9,0l4.7-2.6c.1,0,.3-.2.3-.4s0-.3-.2-.4l-7.9-4.5c-.1,0-.3-.3-.3-.4v-2.8c0-.2.1-.3.3-.4l2.4-1.4c.1,0,.3,0,.5,0l2.4,1.4c.1,0,.2.2.2.4v2.2c0,.2,0,.3.2.4.1,0,.3,0,.5,0l4.7-2.7c.3-.2.5-.5.5-.8v-2.2c0-.3-.2-.6-.5-.8l-7.8-4.5c-.1,0-.3-.1-.5-.1h0ZM59.9,32.3s0,0,.1,0l2.7,1.6c0,0,.1.1.1.2v3.1c0,0,0,.2-.1.2l-2.7,1.6c0,0-.2,0-.2,0l-2.7-1.6c0,0-.1-.1-.1-.2v-3.1c0,0,0-.2.1-.2l2.7-1.6s0,0,.1,0h0s0,0,0,0ZM36.5,25.5c-.2,0-.3,0-.5.1l-7.8,4.5c-.3.2-.5.5-.5.8v9c0,.3.2.6.5.8l7.8,4.5c.3.2.6.2.9,0l7.8-4.5c.3-.2.5-.5.5-.8v-9c0-.3-.2-.7-.5-.8l-7.8-4.5c-.1,0-.3-.1-.5-.1h0ZM83.3,33.6s0,0,0,0l-1.5.9c0,0,0,0,0,.2v1.7c0,0,0,.1,0,.2l1.5.9c0,0,.1,0,.2,0l1.5-.9c0,0,0,0,0-.2v-1.7c0,0,0-.1,0-.2l-1.5-.9s0,0,0,0h0Z"/>
</svg>