<svg xmlns="http://www.w3.org/2000/svg" version="1.1" viewBox="0 0 120 60">
<path d="M13.6,43.9h-5.2v-5.2h5.5c2,0,3,.9,3,2.7s-1.1,2.6-3.3,2.6M17.3,38.6c-.7-.6-1.7-1-3-1h-7.5v12.6h1.5v-5.3s5.5,0,5.5,0c1.4,0,2.5-.3,3.3-1s1.2-1.5,1.2-2.7-.4-2-1.1-2.7h0ZM27.1,47.6c-.1.4-.4.8-.7,1.1-.7.7-1.7,1-3.1,1s-2.2-.3-2.9-1-1-1.5-1-2.6,0-1.1.3-1.5c.2-.4.4-.8.8-1.1.7-.6,1.6-.9,2.9-.9,2.7,0,4,1.2,4,3.5s0,1-.2,1.5M27.3,43c-.9-.8-2.3-1.3-4.1-1.3s-3,.4-3.9,1.3c-.8.8-1.3,1.8-1.3,3.1s.4,2.4,1.3,3.2c.5.4,1,.7,1.7.9s1.4.3,2.2.3c1.8,0,3.2-.4,4.1-1.2.8-.8,1.3-1.8,1.3-3.1s-.4-2.4-1.3-3.2h0ZM38.7,48c0,1.7-1.5,2.5-4.5,2.5s-1.7,0-2.3-.2-1.1-.3-1.5-.6c-.3-.2-.6-.5-.7-.8-.2-.3-.3-.8-.4-1.3h1.4c0,.7.2,1.1.7,1.5.5.4,1.5.6,2.8.6,2.1,0,3.2-.5,3.2-1.6s-.4-1-1.1-1.3c-.1,0-1-.2-2.6-.4s-2.5-.4-2.9-.5c-.8-.3-1.3-.9-1.3-1.8,0-.8.4-1.5,1.1-1.9.4-.2.8-.3,1.4-.4s1.2-.1,1.9-.1c2.9,0,4.4.9,4.4,2.7h-1.3c0-1.3-1-1.9-3.1-1.9s-1.8.1-2.3.4-.8.7-.8,1.2.3.9,1,1.1c.4.1,1.3.3,2.8.4,1.3.1,2.2.3,2.7.5.9.4,1.4,1,1.4,1.8h0ZM44.3,50.3h-.6c0,0-.4.1-.4.1-.9,0-1.6-.1-2-.4s-.6-.7-.6-1.4v-5.7h-1.7v-.8h1.7v-2.7h1.3v2.7h2.2v.9h-2.2s0,5.6,0,5.6c0,.4,0,.7.3.9s.6.2,1.2.2c0,0,.2,0,.3,0s.2,0,.4-.1v.9s0,0,0,0ZM53.1,48.4c-.4.3-.8.5-1.2.7-.5.2-1,.2-1.5.2-2.7,0-4-1.1-4-3.3s.3-1.8,1-2.4,1.7-.9,2.9-.9,2.2.3,2.9.9,1,1.4,1,2.4-.3,1.9-1,2.5M55.4,42h-1.3v1.4c-.6-.6-1-.9-1.2-1.1-.7-.4-1.7-.6-2.8-.6-1.7,0-3,.4-3.8,1.1-.8.7-1.3,1.7-1.3,3s.1,1.2.3,1.8.5,1,.9,1.3c.9.7,2.1,1.1,3.7,1.1s3.3-.5,4.1-1.6v1.5c0,.9-.3,1.7-.9,2.2s-1.6.8-2.9.8-2.2-.2-2.7-.5c-.4-.3-.7-.7-.8-1.4h-1.3c.1.9.5,1.6,1.2,2,.7.5,2,.7,3.7.7,3.4,0,5-1.2,5-3.7v-8h0ZM62.4,42.8c-.4,0-.7,0-1.1,0-2.1,0-3.2,1.2-3.2,3.5v4h-1.3v-8.2s1.3,0,1.3,0v1.5h0c.2-.6.6-1,1-1.3.5-.3,1.3-.4,2.3-.4h.9v1.1h0ZM63.6,45.6c.2-.9.5-1.7,1.1-2.2.4-.3.8-.5,1.3-.7s1-.2,1.6-.2c1.1,0,2.1.3,2.8.9s1.1,1.3,1.1,2.1h-7.8M71.5,43.1c-.5-.5-1-.8-1.7-1-.7-.2-1.4-.3-2.3-.3-1.7,0-3,.4-3.9,1.2s-1.4,1.8-1.4,3.2.4,2.4,1.3,3.2c1,.9,2.3,1.3,4,1.3s1.3,0,1.9-.2,1.1-.4,1.5-.7c.8-.6,1.3-1.2,1.5-2.1h-1.4c-.5,1.4-1.7,2.1-3.6,2.1s-2.4-.3-3.1-1c-.6-.6-.9-1.4-.9-2.3h9.2c0-1.4-.4-2.5-1.2-3.3h0ZM86.3,46.9c0,2.4-2,3.7-5.9,3.7s-4.1-.4-5.2-1.3c-.9-.7-1.3-1.8-1.3-3.2h1.6c0,2.3,1.6,3.4,4.9,3.4s2.7-.2,3.4-.7c.6-.4.9-1.1.9-1.9s-.4-1.5-1.2-1.8c-.5-.2-1.6-.4-3.4-.7-2.2-.3-3.7-.7-4.4-1-1-.5-1.4-1.4-1.4-2.6s.4-2,1.2-2.5c.9-.6,2.4-.9,4.5-.9,3.9,0,5.8,1.3,5.8,3.9h-1.6c0-1.9-1.4-2.9-4.3-2.9s-2.5.2-3.2.6c-.6.4-.9,1-.9,1.8s.4,1.4,1.2,1.8c.4.2,1.7.5,3.8.8,2,.3,3.3.6,4,1,.9.5,1.4,1.3,1.4,2.5h0ZM99.2,48.1c-.6.5-1.3.8-2,1.1-.7.2-1.6.4-2.5.4-1.9,0-3.4-.5-4.6-1.5s-1.8-2.4-1.8-4.1.6-3.1,1.7-4.1,2.7-1.5,4.6-1.5,3.5.5,4.6,1.5c.6.5,1,1.1,1.3,1.8s.4,1.4.4,2.3c0,1.8-.6,3.2-1.8,4.2M100.1,49c.8-.6,1.4-1.3,1.8-2.1s.6-1.8.6-2.9c0-2-.6-3.5-1.9-4.7-.7-.6-1.5-1.1-2.5-1.4s-2.1-.5-3.4-.5c-2.4,0-4.4.6-5.8,1.8s-2.1,2.8-2.1,4.8.7,3.6,2.1,4.8,3.3,1.8,5.8,1.8,1.8,0,2.5-.2,1.3-.3,1.8-.6l2.3,1.6,1-.9-2.3-1.5h0ZM114.4,50.3h-10.9v-12.6h1.5s0,11.5,0,11.5h9.4v1s0,0,0,0ZM74.9,23.6c-.1-.3-.6-1.3-2.3-1-.7.1-1.2.2-1.6.2,3-5.1,4.9-11.9,3-14.3-3.6-4.5-9.3-3.5-11.2-2.9-.7-.1-1.4-.2-2.2-.2-1.5,0-2.8.3-3.9,1-1.7-.6-6.2-1.8-9.2.3-1.9,1.4-2.8,3.7-2.6,7,0,1,2,13,5.9,14.3.6.2,1.6.3,2.6-.6.4.5,1,.8,1.6.9,1.3.3,2.6.3,3.6-.2,0,.2,0,.4,0,.5v.7c0,1.6.2,2.8.5,3.6v.2c.7,1.9,1.8,2.8,3.4,2.8s.7,0,1.1-.1c3-.6,4.7-2.1,4.8-8.1h0s0-.3,0-.3c0,0,0-.1,0-.2h.3c1,0,2.5-.1,3.5-.6.7-.3,2.9-1.5,2.4-3.1ZM72.1,25.8c-.7.3-1.8.5-2.8.5s-.9,0-1.2-.2l-.7,5.3c-.4,2.1-1.3,3.1-3.5,3.6-.4,0-.7.1-1,.1-2.1,0-2.7-1.7-3-2.3-.3-.8-.4-3.5-.4-6.3-.8.7-1.7,1-2.8,1s-.9,0-1.4-.2c-.1,0-1.3-.4-1.3-1.1,0-.7,1-.9,1.4-1,1.3-.3,1.4-.4,1.8-.9,0-.1.2-.2.3-.4,0,0,0,0,0,0-.6,0-1.2-.2-1.7-.5-.3.4-1.3,1.4-2.4,2.7-.6.8-1.2,1-1.7,1s-.4,0-.5,0c-3.3-1.1-5.3-12.2-5.3-13.5-.1-3,.6-5.1,2.3-6.2,3-2.1,7.8-.5,8.8,0,1-.7,2.3-1,3.7-1,.8,0,1.5.1,2.2.3.7-.4,7-2.1,10.6,2.5,1.6,2-.3,9.2-3.7,14.4.2.2,1,.5,3.1,0,.7-.1,1.1,0,1.3.4.3.8-1.2,1.7-1.9,2ZM55.5,8.6c-1.8,2.5-1.8,6-1.8,6.3,0,0,0,0,0,0,0,0,0,.2,0,.4,0,.7.1,2.1,0,3.6-.2,1.3.2,2.5.9,3.5-.5.5-1.4,1.5-2.4,2.7-.2.3-.4.3-.4.4-1.5-.3-4-9-4.2-12-.1-2.3.4-3.9,1.5-4.7,1.7-1.2,4.6-.7,6.4-.2ZM69.6,15.3c0-.5.2-1.1.1-1.7,0,0,0-.1,0-.2,0-.6-1.2-3.8-4.2-5.8,1.9-.2,4.6,0,6.4,2.4.6.8,0,5.2-2.3,9.8,0-.6,0-1.2-.1-1.8,0-.5-.1-1-.1-1.5,0-.5,0-.9.1-1.3ZM54.6,15.3c0,.7.1,2.1,0,3.7-.1,1,.1,1.9.7,2.7l.4-.4.9.6c.3.2.7.3,1,.4l.6-.5h0c0-.3.2-.5.3-.7.5-1.1,1.1-2.5.4-5.8-.1-.6-.5-1-1-1.1-1.2-.3-2.9.6-3.2.9,0,0,0,.2,0,.3ZM56.8,14.9s0-.1.1-.2c.1-.1.4-.2.7-.1.4,0,.8.2.7.5,0,.1-.1.2-.2.3-.2.1-.3.2-.5.2s0,0,0,0c-.2,0-.5-.2-.6-.4,0,0-.1-.1-.1-.2h0s0-.1,0-.1ZM68.7,18.3c0-.5-.1-1.1-.1-1.6,0-.5,0-1,.2-1.4,0-.4.1-.8.1-1.2-1-.1-2.2,0-2.6.6-.9,1.3.9,4.4,1.6,5.8.2.3.3.6.4.8,0,.2.1.3.2.5.5-1.1.4-2.2.3-3.3ZM68.1,14.7c0,.2-.4.5-.7.5,0,0,0,0,0,0-.4,0-.7-.3-.7-.5,0,0,0,0,0-.2,0-.1.3-.2.6-.3.2,0,.5,0,.6,0h0s0,0,0,0c0,0,.1,0,.2.2v.2s0,0,0,0ZM59.5,25.2l-.5-.2s0,0,0,0l.4-.4c0,0,0,.1,0,.2,0,.1,0,.3,0,.4ZM68.3,24.6s0,0,0,0c0,0,0,0,0,0,0,0,0,0-.1,0ZM59.3,23.4l.2-2.9c.4-1.1.7-2.7.1-5.5-.3-1.3-1.3-2-2.7-1.8-.7,0-1.6.4-2.3.8.1-1.2.5-3.5,1.8-5.1,0,0,0,0,.1,0l.7.3.6-.4c.8-.6,1.7-.9,2.9-.8.7,0,1.4,0,2.1.2h.3s.5,0,.5,0h0c0,0,.3-.2.7-.2,2.8,1.4,4.2,4.1,4.5,5.2-1.6-.2-2.7.2-3.3,1-1.2,1.7.7,5.1,1.6,6.7.2.3.3.5.4.7.2.5.5.9.7,1.2,0,0,0,0,0,0l-.3.5v.5c-.1.2-.3.5-.4,1.1-.1,0-.2.1-.3.2-.7.5-.8,1.3-.9,2.2v.3s.9.1.9.1h0s-1,0-1,0c-.1,5.2-1.2,5.5-2.8,5.8-1.1.2-1.2-.1-1.5-.9,0-.1,0-.2,0-.3-.2-.6-.3-2.2-.3-2.9v-.7c0-2-.1-3.1-.9-3.7l-.2.2s0,0,0,0c0,0,0,0,0,0,0,0,0,0,0,0,0,0,0,0,0-.1,0,0,0-.1,0-.2-.1-.5-.5-1-1-1.1,0,0,0,0,0,0ZM68.1,22.7s0,0,0,0c0,.1.2.2.3.3,0,.1.2.2.2.3-.2,0-.5.2-.7.4v-.5c-.1,0,.2-.5.2-.5ZM67.1,24.9c.1,0,.2-.1.3-.2,0,.2,0,.4,0,.6l-.3,2.2h-.9c0-.1,0-.4,0-.4.1-1,.2-1.7.9-2.2ZM66.1,27.5h1s-.5,3.8-.5,3.8c-.3,1.8-1,2.5-2.8,2.8-1.9.4-2.6-.6-3-1.7-.3-.7-.4-3.9-.3-7.5l.2-.2c.7.6.8,1.7.9,3.7v.7c0,.7.1,2.2.3,2.9,0,0,0,.2,0,.3.3.8.4,1.2,1.5.9,1.5-.3,2.6-.6,2.8-5.8ZM59,25l.5.2s0,0,0,.1c-1.1,1.5-2.7,1.5-3.9,1.2-.2,0-.5-.2-.6-.2.1,0,.3-.1.6-.2,1.6-.3,1.8-.5,2.3-1.2.1-.1.3-.3.4-.5h0c.3-.3.4-.3.6-.2.1,0,.3.2.4.4l-.4.4s0,0,0,0ZM56.5,9s0,0-.1,0c.1-.1.2-.3.3-.4,1-1,2.3-1.5,3.9-1.5,1.4,0,2.6.4,3.6.9-.3,0-.6.1-.7.2h0c0,0-.5.1-.5.1h-.3c-.6-.2-1.3-.3-2.1-.3-1.2,0-2.1.3-2.9.8l-.6.4-.7-.3ZM58.5,23.3c0-.3.2-.7.4-1.1v-.2c.1-.2.2-.4.3-.6.1-.3.2-.5.4-.9l-.2,2.9c-.2,0-.5-.2-.9,0ZM69.2,22.6s0,0-.1-.1c0,0,0,0,0,0,.5-.8.7-1.6.7-2.4,2.3-4.6,2.9-9.1,2.3-9.8-1.9-2.4-4.6-2.6-6.4-2.4-.4-.3-.8-.5-1.3-.7,1.9-.4,5.9-.7,8.4,2.5,1.1,1.4-.1,7.6-3.5,13ZM57.5,22.3l.6-.5h0c-.2.6-.3,1-.4,1.4-.8,0-1.6-.4-2.2-1-.1-.1-.2-.2-.3-.4l.4-.4.9.6c.3.2.7.3,1,.4ZM68.4,24.6s0,0,0,0c.1-.3.4-.3.6-.4,0,0,.1,0,.2,0,0,0,0,0,.1,0,.7.5,2,.5,3.7.1,0,0,0,0,0,0-.2.2-.6.5-1.2.8-1.2.5-3.3.6-3.6.3,0-.4,0-.6,0-.8,0,0,0,0,.1,0ZM56.2,7.9s0,0,0,0c-.2.2-.4.5-.6.7-1.8-.5-4.7-1-6.4.2-1.1.8-1.7,2.4-1.5,4.7.1,2.9,2.6,11.7,4.2,12,0,0,.1,0,.4-.4,1-1.2,2-2.2,2.4-2.7,0,.1.2.2.3.3.1.1.2.2.3.3-.4.4-1.3,1.5-2.3,2.6-.7.8-1.2.7-1.3.6-2.4-.8-4.6-10.5-4.7-12.8-.1-2.7.5-4.5,1.9-5.5,2.3-1.6,6-.6,7.5-.2ZM60.4,24.9s0,0,0,0h0s0,0,0-.1c0,0,0,0,0,0ZM57.4,27.1"/>
</svg>