<svg xmlns="http://www.w3.org/2000/svg" version="1.1" viewBox="0 0 560 251">
<path d="M217.3,126.5c0-15.6-4.5-23.7-13.4-24.1-3.5-.2-7,.4-10.4,1.7-2.7,1-4.5,1.9-5.5,2.9v37.3c5.7,3.6,10.8,5.2,15.2,5,9.3-.6,14-8.2,14-22.8h0ZM228.3,127.1c0,7.9-1.9,14.5-5.6,19.8-4.2,5.9-10,9-17.4,9.2-5.6.2-11.3-1.6-17.2-5.2v33.9l-9.6-3.4v-75.3c1.6-1.9,3.6-3.6,6-5,5.7-3.3,12.6-5,20.8-5.1h.1c7.4,0,13.2,3.1,17.2,9.3,3.8,5.7,5.6,13,5.6,21.9h0ZM286.7,149.4c0,10.7-1.1,18-3.2,22.1s-6.2,7.4-12.2,9.8c-4.9,1.9-10.2,3-15.8,3.1l-1.6-6c5.8-.8,9.8-1.6,12.2-2.4,4.6-1.6,7.8-4,9.6-7.2,1.4-2.6,2.1-7.6,2.1-15.1v-2.5c-6.5,3-13.4,4.4-20.6,4.4s-8.9-1.5-12.4-4.4c-4-3.2-6-7.3-6-12.3v-39.8l9.6-3.3v40.1c0,4.3,1.4,7.6,4.1,9.9,2.8,2.3,6.3,3.4,10.7,3.3,4.4,0,9.1-1.8,14.1-5.1v-46.7h9.6v52h-.2ZM324.1,155.5c-1.1,0-2.2.1-3.1.1-5.4,0-9.6-1.3-12.6-3.9-3-2.6-4.5-6.2-4.5-10.7v-37.7h-6.5v-6h6.5v-16l9.6-3.4v19.4h10.7v6h-10.7v37.4c0,3.6,1,6.1,2.9,7.6,1.7,1.2,4.3,1.9,7.9,2.1v5h-.2ZM382,154.8h-9.6v-36.9c0-3.8-.9-7-2.6-9.7-2-3.1-4.8-4.6-8.4-4.6s-9.9,2.3-16.4,6.9v44.2h-9.6v-88.2l9.6-3v40.2c6.1-4.4,12.8-6.7,20-6.7s9.2,1.7,12.3,5.1c3.1,3.4,4.7,7.6,4.7,12.7v39.9h0ZM432.8,125c0-6-1.1-11-3.4-14.9-2.7-4.8-6.9-7.3-12.6-7.6-10.5.6-15.7,8.1-15.7,22.5s1.1,12.1,3.3,16.5c2.8,5.6,7,8.4,12.6,8.3,10.5,0,15.8-8.4,15.8-24.9h0ZM443.3,125c0,8.5-2.2,15.7-6.5,21.3-4.8,6.4-11.4,9.6-19.9,9.6s-14.9-3.2-19.7-9.6c-4.3-5.7-6.4-12.8-6.4-21.3s2.3-14.8,6.9-20.3c4.9-5.8,11.3-8.8,19.2-8.8s14.4,2.9,19.4,8.8c4.6,5.5,6.9,12.3,6.9,20.3h.1ZM498.1,154.8h-9.6v-39c0-4.3-1.3-7.6-3.9-10s-6-3.6-10.3-3.5c-4.5,0-8.9,1.6-13,4.4v48h-9.6v-49.2c5.5-4,10.6-6.6,15.2-7.8,4.4-1.1,8.2-1.7,11.5-1.7s4.4.2,6.4.7c3.8.9,6.8,2.5,9.2,4.8,2.6,2.6,3.9,5.8,3.9,9.4v43.9h.2ZM84.1,66.9c-4.9,0-9.6.4-13.8,1.2-12.2,2.2-14.4,6.7-14.4,15v11h28.8v3.7h-39.6c-8.4,0-15.7,5-18,14.6-2.6,11-2.8,17.8,0,29.3,2,8.5,6.9,14.6,15.3,14.6h9.9v-13.1c0-9.5,8.2-17.9,18-17.9h28.7c8,0,14.4-6.6,14.4-14.6v-27.4c0-7.8-6.6-13.7-14.4-15-4.9-.8-10.1-1.2-15-1.2h0v-.2ZM68.5,75.7c3,0,5.4,2.5,5.4,5.5s-2.4,5.5-5.4,5.5-5.4-2.4-5.4-5.5,2.4-5.5,5.4-5.5ZM117.1,97.6v12.8c0,9.9-8.4,18.2-18,18.2h-28.7c-7.9,0-14.4,6.7-14.4,14.6v27.4c0,7.8,6.8,12.4,14.4,14.6,9.1,2.7,17.9,3.2,28.7,0,7.2-2.1,14.4-6.3,14.4-14.6v-11h-28.7v-3.7h43.1c8.4,0,11.5-5.8,14.4-14.6,3-9,2.9-17.7,0-29.3-2.1-8.3-6-14.6-14.4-14.6h-10.8v.2ZM100.9,167c3,0,5.4,2.4,5.4,5.5s-2.4,5.5-5.4,5.5-5.4-2.5-5.4-5.5,2.4-5.5,5.4-5.5ZM516.8,88.9h1.7v-10.5h4v-1.3h-9.6v1.3h4v10.5h-.1ZM523.9,88.9h1.4v-9.6l3.1,9.6h1.6l3.2-9.6v9.6h1.6v-11.8h-2.1l-3.5,10.1-3-10.1h-2.3v11.8Z"/>
</svg>