<svg xmlns="http://www.w3.org/2000/svg" version="1.1" viewBox="0 0 2500 2500">
<path class="cls-1" d="M0,0v2500h2500V0H0ZM1428.8,1356.2h-325v925h-230.6v-925h-325v-101.9h0l1.9.6v-102.5l437.5-1.9c240.6,0,438.7.6,438.7,2.5,2.5,1.2,2.5,46.9,2.5,103.1v100ZM2275,2091.3c-40,104.4-137.5,175-276.9,198.1-43.8,7.5-143.8,6.2-190.6-1.9-100-18.8-195.6-68.8-254.4-133.1-23.1-25-67.5-91.9-65-96.2l23.8-15,93.8-54.4,70.6-41.3,16.2,21.9c20.6,32.5,66.9,76.3,93.8,91.3,81.2,41.9,190,36.2,243.8-12.5,23.1-21.2,33.1-43.8,33.1-75s-4.4-41.9-18.8-63.8c-20-27.5-60-50-172.5-100-129.4-55-184.4-90-235.6-143.8-29.4-32.5-56.2-83.1-68.8-125-9.4-36.2-12.5-125-3.8-160.6,26.9-125,121.2-212.5,256.2-237.5,43.8-8.8,146.9-5,190,6.2l-1.2,1.2c63.7,15,112.5,43.8,156.2,89.4,23.1,25,57.5,68.8,60,80,0,3.8-108.1,76.9-173.8,117.5-2.5,1.9-12.5-8.7-22.5-25-32.5-46.2-65.6-66.2-117.5-70-75-5-125,34.4-125,100s3.8,31.2,11.2,47.5c16.9,34.4,48.1,55,145,97.5,178.8,76.9,256.2,127.5,303.1,200,53.1,81.2,65,208.7,29.4,304.4Z"/>
</svg>